<?xml version="1.0" encoding="UTF-8"?>
<svg version="1.1" xmlns="http://www.w3.org/2000/svg" width="1024" height="1024">
<path d="M0 0 C337.92 0 675.84 0 1024 0 C1024 337.92 1024 675.84 1024 1024 C686.08 1024 348.16 1024 0 1024 C0 686.08 0 348.16 0 0 Z " fill="#FEFEFE" transform="translate(0,0)"/>
<path d="M0 0 C1.12567383 0.21462891 2.25134766 0.42925781 3.41113281 0.65039062 C6.99101412 1.35606367 10.55857393 2.10434785 14.125 2.875 C15.23488281 3.10719238 16.34476563 3.33938477 17.48828125 3.57861328 C27.62893212 5.92009587 27.62893212 5.92009587 31 11 C30.71438599 12.34436361 30.37191368 13.67690926 30 15 C29.90399555 16.85239401 29.86191937 18.70787788 29.85473633 20.56274414 C29.84844711 21.69935486 29.8421579 22.83596558 29.8356781 24.00701904 C29.83447464 25.25380432 29.83327118 26.5005896 29.83203125 27.78515625 C29.82802903 29.11948705 29.82383791 30.4538173 29.81947327 31.78814697 C29.80989219 35.44250825 29.80893474 39.09682228 29.81111908 42.751194 C29.8125075 45.07504608 29.81241538 47.39889537 29.81231689 49.7227478 C29.82030138 75.2613535 30.23047109 100.78252619 30.875 126.3125 C30.90776346 127.61140482 30.90776346 127.61140482 30.94118881 128.93655014 C31.41714877 147.70086818 31.95077474 166.46346086 32.50699615 185.22555161 C32.69303606 191.5116072 32.8766186 197.79773401 33.05860901 204.08390808 C33.10270473 205.60561087 33.14696416 207.12730892 33.19139099 208.64900208 C34.02073335 237.10527109 34.24376093 265.53059812 34 294 C31.03 294 28.06 294 25 294 C25 289.71 25 285.42 25 281 C18.4 281.33 11.8 281.66 5 282 C5 279.69 5 277.38 5 275 C11.27 275 17.54 275 24 275 C23.9278125 273.62972656 23.855625 272.25945312 23.78125 270.84765625 C23.05534353 256.22212883 22.87960515 241.64186647 23 227 C22.23042969 227.15855469 21.46085937 227.31710937 20.66796875 227.48046875 C15.87019562 228.16002554 11.15264381 228.26260161 6.3125 228.3125 C5.36310547 228.34150391 4.41371094 228.37050781 3.43554688 228.40039062 C2.52482422 228.40876953 1.61410156 228.41714844 0.67578125 228.42578125 C-0.15010498 228.44036377 -0.97599121 228.45494629 -1.8269043 228.4699707 C-4 228 -4 228 -5.79223633 226.09838867 C-7 224 -7 224 -7 222 C-3.28111134 221.1367399 0.14296488 220.88278444 3.95703125 220.90234375 C5.06884766 220.90556641 6.18066406 220.90878906 7.32617188 220.91210938 C8.47666016 220.92048828 9.62714844 220.92886719 10.8125 220.9375 C12.56723633 220.94426758 12.56723633 220.94426758 14.35742188 220.95117188 C17.23833358 220.9629307 20.11914044 220.97936574 23 221 C22.8928064 219.57204102 22.8928064 219.57204102 22.78344727 218.11523438 C22.05735901 207.89574378 21.87709211 197.74198734 21.9375 187.5 C21.94253584 185.98307443 21.94709499 184.4661472 21.95117188 182.94921875 C21.96198764 179.2994436 21.97913154 175.64973321 22 172 C20.78983467 172.23224274 20.78983467 172.23224274 19.55522156 172.46917725 C15.4010368 173.08942995 11.3090622 173.31264914 7.11645508 173.49316406 C6.23079644 173.53415128 5.34513781 173.57513849 4.43264103 173.61736774 C1.46175868 173.75378652 -1.50933497 173.88480433 -4.48046875 174.015625 C-6.62377884 174.11241016 -8.76707897 174.20941623 -10.91036987 174.30662537 C-16.77165549 174.57110743 -22.6331719 174.83009825 -28.49477005 175.08755112 C-32.19438285 175.25030279 -35.89393499 175.41437621 -39.59347534 175.57876587 C-81.4106575 177.43402683 -123.23428986 179.10247764 -165.0625 180.6875 C-166.08588069 180.72628989 -166.08588069 180.72628989 -167.12993574 180.76586342 C-183.36726408 181.38111881 -199.60488467 181.98828921 -215.84283161 182.5870018 C-223.32130135 182.86297003 -230.79961112 183.14286924 -238.27782154 183.42577457 C-263.18342278 184.36688366 -288.07789675 185.28616981 -313 185.625 C-315.49446837 185.66318484 -317.98893448 185.70151826 -320.48339844 185.73999023 C-340.65568666 186.03756357 -360.82598927 186.12182374 -381 186 C-380.9285376 186.94037109 -380.8570752 187.88074219 -380.78344727 188.84960938 C-380.02667146 199.41271547 -379.87894357 209.91344012 -379.9375 220.5 C-379.94253439 222.11327983 -379.94709381 223.72656122 -379.95117188 225.33984375 C-379.9620024 229.22660214 -379.9791554 233.11328295 -380 237 C-379.33737561 236.93338952 -378.67475122 236.86677904 -377.99204731 236.79815006 C-371.2182448 236.14580891 -364.47070187 235.75181887 -357.6706543 235.51928711 C-356.59557617 235.4801268 -355.52049805 235.44096649 -354.4128418 235.40061951 C-350.8834068 235.27299782 -347.35383219 235.14992429 -343.82421875 235.02734375 C-341.33347674 234.93920767 -338.8427389 234.85095374 -336.352005 234.7625885 C-331.12968054 234.57811442 -325.90727766 234.39607808 -320.68481445 234.21557617 C-315.3871401 234.03245235 -310.08963372 233.84503504 -304.79223633 233.65405273 C-247.77177517 231.59897755 -247.77177517 231.59897755 -224 232 C-224.33 233.98 -224.66 235.96 -225 238 C-236.58391997 238.819332 -248.15890915 239.28827733 -259.76568413 239.63075256 C-262.82556227 239.72109633 -265.88532665 239.81470362 -268.94508362 239.90905762 C-275.44247167 240.1088537 -281.93997587 240.3046863 -288.4375 240.5 C-295.97601365 240.72674009 -303.51446866 240.95519533 -311.05281258 241.18751526 C-314.03518871 241.27862564 -317.01763996 241.36687352 -320.00010681 241.45495605 C-329.79067193 241.75168045 -339.55855273 242.15403159 -349.33288574 242.79698181 C-355.24349466 243.12420399 -361.1449647 243.10729678 -367.0625 243.0625 C-371.001875 243.041875 -374.94125 243.02125 -379 243 C-378.01 267.255 -378.01 267.255 -377 292 C-369.61625 291.690625 -362.2325 291.38125 -354.625 291.0625 C-337.81300219 290.37675321 -321.00686966 289.80035669 -304.18469238 289.44903564 C-286.91008471 289.08532828 -269.64320927 288.52299014 -252.375 287.9375 C-251.69014778 287.91430695 -251.00529556 287.89111389 -250.29969025 287.86721802 C-241.86634563 287.58146359 -233.4331141 287.29248056 -225 287 C-225 289.31 -225 291.62 -225 294 C-239.35482739 294.52978539 -253.70993098 295.05148005 -268.06536388 295.56460571 C-274.73552576 295.80315987 -281.40557634 296.04420642 -288.07543945 296.29101562 C-317.72438049 297.38645746 -347.3280509 298.38480459 -377 298 C-376.93424774 299.00898346 -376.86849548 300.01796692 -376.80075073 301.05752563 C-374.62782426 334.45693836 -374.62782426 334.45693836 -375 348 C-374.34 347.67 -373.68 347.34 -373 347 C-370.85071781 346.84413673 -368.69688436 346.7495847 -366.54296875 346.68359375 C-365.89149368 346.66276733 -365.24001862 346.64194092 -364.56880188 346.6204834 C-362.44182077 346.55434446 -360.3147153 346.49558046 -358.1875 346.4375 C-356.7330719 346.39464719 -355.27864482 346.35175971 -353.82421875 346.30883789 C-342.5481878 345.98878824 -331.28035606 345.88567207 -320 346 C-320.99 348.31 -321.98 350.62 -323 353 C-358.68316155 354.19388403 -358.68316155 354.19388403 -374 354 C-373.94465088 354.59611084 -373.88930176 355.19222168 -373.83227539 355.80639648 C-372.39393734 371.52933218 -371.49514254 387.21984758 -371 403 C-369.86046875 402.9278125 -368.7209375 402.855625 -367.546875 402.78125 C-355.68434994 402.07169924 -343.88180309 401.88731694 -332 402 C-332 403.98 -332 405.96 -332 408 C-336.12574136 408.28834178 -340.25171471 408.5730288 -344.37792969 408.85449219 C-345.77838768 408.95051991 -347.17878039 409.04750506 -348.57910156 409.14550781 C-350.6046488 409.28709385 -352.63041441 409.42510873 -354.65625 409.5625 C-355.87119141 409.64628906 -357.08613281 409.73007812 -358.33789062 409.81640625 C-362.23719505 410.01189138 -366.09659759 410.0301421 -370 410 C-369.93941406 411.09352783 -369.87882812 412.18705566 -369.81640625 413.3137207 C-369.58974237 417.4193526 -369.36706195 421.52519298 -369.14550781 425.63110352 C-369.04956816 427.39906531 -368.95258685 429.16697092 -368.85449219 430.93481445 C-367.81071037 449.77081595 -367.81071037 449.77081595 -368 459 C-367.29093506 458.96970703 -366.58187012 458.93941406 -365.85131836 458.90820312 C-339.79876096 457.80991939 -339.79876096 457.80991939 -327 458 C-326.67 459.98 -326.34 461.96 -326 464 C-329.90992626 464.29042518 -333.82023719 464.57495131 -337.73095703 464.85449219 C-339.69976053 464.99637936 -341.6682456 465.14266349 -343.63671875 465.2890625 C-351.44125582 465.84369965 -359.17612009 466.1316782 -367 466 C-366.93941406 466.98170166 -366.87882812 467.96340332 -366.81640625 468.97485352 C-366.58818074 472.69284573 -366.36602747 476.41118214 -366.14550781 480.12963867 C-366.05010304 481.72478728 -365.95315234 483.31984435 -365.85449219 484.91479492 C-365.21377089 495.29382618 -364.86113618 505.59967814 -365 516 C-364.34 515.67 -363.68 515.34 -363 515 C-361.63613837 514.85468012 -360.26621526 514.76400268 -358.89599609 514.70288086 C-357.62228653 514.6429319 -357.62228653 514.6429319 -356.32284546 514.58177185 C-354.93713852 514.52389244 -354.93713852 514.52389244 -353.5234375 514.46484375 C-352.56539215 514.42186661 -351.6073468 514.37888947 -350.62026978 514.33460999 C-348.5809272 514.24422954 -346.54148307 514.15611704 -344.50195312 514.07006836 C-341.43590016 513.94008189 -338.3703162 513.80170408 -335.3046875 513.66210938 C-330.43261339 513.44417661 -325.56012398 513.26383 -320.68591309 513.10125732 C-318.15839301 513.00597132 -315.63564593 512.87217543 -313.11035156 512.73095703 C-311.66998282 512.6745289 -310.2295555 512.61956793 -308.7890625 512.56640625 C-307.5613916 512.50525635 -306.3337207 512.44410645 -305.06884766 512.38110352 C-302 513 -302 513 -299.57568359 516.02709961 C-299.05570801 517.00815674 -298.53573242 517.98921387 -298 519 C-304.55389863 519.70927131 -311.0874363 520.22650817 -317.671875 520.53515625 C-318.55675598 520.57813339 -319.44163696 520.62111053 -320.35333252 520.66539001 C-322.21205514 520.75487565 -324.07084176 520.84304096 -325.9296875 520.92993164 C-328.729397 521.06153156 -331.52874661 521.19944631 -334.328125 521.33789062 C-344.22902051 521.81489547 -354.08533884 522.14113025 -364 522 C-363.8460376 522.84675293 -363.6920752 523.69350586 -363.53344727 524.56591797 C-362.99459885 528.03477008 -362.69585321 531.44297223 -362.46484375 534.9453125 C-362.42186661 535.59644012 -362.37888947 536.24756775 -362.33460999 536.91842651 C-362.24490341 538.29154748 -362.156748 539.66477057 -362.07006836 541.03808594 C-361.93917222 543.09867568 -361.80097637 545.15868401 -361.66210938 547.21875 C-361.14321759 555.15503695 -360.87316994 563.04634603 -361 571 C-360.06885376 570.93268677 -360.06885376 570.93268677 -359.11889648 570.86401367 C-340.50625704 569.53607502 -321.88155522 568.46095169 -303.25 567.4375 C-302.09869598 567.37356049 -300.94739197 567.30962097 -299.76119995 567.2437439 C-286.00769418 566.48194774 -272.25619256 565.81176633 -258.48968506 565.33177185 C-253.2485646 565.14561255 -248.03667576 564.90032191 -242.8125 564.4375 C-235.87461751 563.82589603 -228.95947736 563.9133675 -222 564 C-222 565.98 -222 567.96 -222 570 C-238.60984502 571.58504897 -255.21119663 572.62539986 -271.875 573.4375 C-274.37355884 573.56243411 -276.8720936 573.68785073 -279.37060547 573.8137207 C-283.25579316 574.00937198 -287.14099418 574.20470203 -291.02627563 574.39848328 C-304.45070158 575.06837257 -317.87312763 575.77467166 -331.29547119 576.4848938 C-336.17789418 576.74320474 -341.06036662 577.0005738 -345.94284058 577.25791931 C-350.62857368 577.50502753 -355.31428482 577.75255212 -360 578 C-360 592.52 -360 607.04 -360 622 C-338.18078552 621.05476327 -316.3645399 620.07358493 -294.55078125 619.01171875 C-292.7288159 618.92316313 -290.90685036 618.83461131 -289.08488464 618.74606323 C-281.75688722 618.38964381 -274.4289014 618.03303257 -267.10116577 617.67126465 C-257.74066026 617.2094075 -248.3798957 616.75737601 -239.01769543 616.33109474 C-234.45130269 616.12117207 -229.88697333 615.88819982 -225.32291412 615.63262463 C-223.25475977 615.51936872 -221.18638757 615.41532939 -219.11755371 615.31532288 C-216.64022632 615.19494267 -214.16357025 615.05933842 -211.68811035 614.90525818 C-203.77885076 614.55500211 -203.77885076 614.55500211 -199.81445312 616.82006836 C-197.88980458 619.13239167 -196.8766286 621.13103366 -196 624 C-197.5657371 625.5657371 -199.17746539 625.23768624 -201.35644531 625.35717773 C-202.76269669 625.43758804 -202.76269669 625.43758804 -204.19735718 625.5196228 C-205.74708725 625.60078842 -205.74708725 625.60078842 -207.328125 625.68359375 C-208.40325348 625.74334381 -209.47838196 625.80309387 -210.58609009 625.86465454 C-214.14047663 626.06053162 -217.69520496 626.24919293 -221.25 626.4375 C-223.71371323 626.57137125 -226.17741759 626.70540587 -228.64111328 626.83959961 C-244.9864917 627.72119349 -261.33522528 628.48832911 -277.68954468 629.18185425 C-289.15742215 629.66905207 -300.60912355 630.24246078 -312.0625 631 C-339.97320539 632.82773295 -367.9119348 634.00353269 -395.875 634.625 C-396.78228851 634.6455545 -397.68957703 634.66610901 -398.62435913 634.68728638 C-403.84207663 634.80237653 -409.05965039 634.89649382 -414.27819824 634.96447754 C-416.19302882 634.98946815 -418.10782321 635.01731463 -420.02258301 635.04724121 C-423.08014791 635.09193229 -426.13754014 635.1220782 -429.1953125 635.1484375 C-430.14630829 635.16379547 -431.09730408 635.17915344 -432.07711792 635.19497681 C-432.95417389 635.19943817 -433.83122986 635.20389954 -434.73486328 635.20849609 C-435.51161407 635.21658295 -436.28836487 635.2246698 -437.08865356 635.23300171 C-439 635 -439 635 -441 633 C-442.40843765 626.67549764 -442.23231346 619.85489074 -442.4296875 613.40234375 C-442.46441666 612.36928101 -442.49914581 611.33621826 -442.53492737 610.27185059 C-442.61069285 608.01810015 -442.68508743 605.76430331 -442.75827026 603.51046753 C-442.96326489 597.23580971 -443.18262055 590.96165691 -443.40234375 584.6875 C-443.42562052 584.02125547 -443.44889729 583.35501095 -443.47287941 582.66857719 C-444.05945935 565.9221119 -444.73927468 549.1796351 -445.4375 532.4375 C-445.46886551 531.6833997 -445.50023102 530.92929939 -445.532547 530.15234756 C-446.50425284 506.80179547 -447.58198337 483.45753583 -448.72328949 460.11471176 C-449.52541548 443.70664669 -450.25625706 427.30834046 -450.65673828 410.88549805 C-450.84296056 403.53626844 -451.11067255 396.19834628 -451.46484375 388.85546875 C-451.52992882 387.50344864 -451.52992882 387.50344864 -451.59632874 386.12411499 C-451.80649658 381.80133972 -452.02374024 377.47907232 -452.25219727 373.15722656 C-452.82475687 361.9431308 -453.13724035 350.73231323 -453.38364983 339.50732231 C-453.72281874 324.11808579 -454.2045135 308.74451442 -454.90234375 293.3671875 C-454.94336842 292.46273958 -454.98439308 291.55829166 -455.02666092 290.62643623 C-455.23880592 285.97077725 -455.45386984 281.31525782 -455.67016602 276.65979004 C-457.06805709 246.51158628 -458.30059239 216.36972049 -459.05102921 186.19836807 C-459.5560918 165.90305945 -460.21459659 145.61831215 -461.0078125 125.33203125 C-461.05322929 124.16846729 -461.09864609 123.00490334 -461.14543915 121.80607986 C-461.60164792 110.14190239 -462.06590921 98.47807525 -462.54355049 86.81475544 C-462.72171542 82.44472486 -462.89622266 78.07455224 -463.0701561 73.70435143 C-463.15163146 71.6819291 -463.23484657 69.65957588 -463.32007217 67.63730812 C-463.78150954 56.68653809 -464.11299747 45.73527059 -464.23779297 34.77514648 C-464.25990404 33.74278649 -464.28201511 32.7104265 -464.30479622 31.64678288 C-464.31022879 30.69035609 -464.31566135 29.73392931 -464.32125854 28.7485199 C-464.33184736 27.90258994 -464.34243618 27.05665998 -464.35334587 26.18509579 C-463.91818029 23.4940258 -463.12444677 22.65314715 -461 21 C-450.71971546 16.91077751 -438.65726196 16.66090596 -427.75 15.5625 C-425.6609666 15.34720145 -423.57193673 15.13186872 -421.48291016 14.91650391 C-371.4220996 9.80980169 -321.27339882 6.75294212 -271.00292969 4.64599609 C-270.14460037 4.6092981 -269.28627106 4.5726001 -268.40193176 4.53479004 C-266.83975564 4.46827213 -265.27749628 4.40365823 -263.71513367 4.3416748 C-259.57453321 4.16457947 -255.46012175 3.87411195 -251.33203125 3.50439453 C-244.47782998 2.91627469 -237.62907184 2.69310504 -230.75390625 2.5 C-229.39276423 2.45959135 -228.03162954 2.41893556 -226.67050171 2.37805176 C-223.05086182 2.27025173 -219.43111279 2.16668285 -215.81132126 2.06411743 C-213.54338164 1.99945491 -211.27548564 1.93343243 -209.00759888 1.86694336 C-190.12081 1.3132603 -171.23404449 0.82815437 -152.34289551 0.44775391 C-135.66129277 0.10675438 -118.98762182 -0.42710271 -102.3125 -1 C-100.45744339 -1.06296265 -100.45744339 -1.06296265 -98.56491089 -1.12719727 C-81.94391786 -1.69353968 -81.94391786 -1.69353968 -65.3359375 -2.546875 C-43.55893628 -3.84287516 -21.49126481 -4.09836766 0 0 Z " fill="#070707" transform="translate(592,130)"/>
<path d="M0 0 C6.17060778 -0.09980454 12.34073288 -0.17190611 18.51196289 -0.21972656 C20.60579629 -0.23968776 22.69957506 -0.26686659 24.79321289 -0.30175781 C42.87369926 -0.59525819 58.17716435 0.69799139 72.125 13.5625 C91.00596697 33.77311253 96.51405425 65.34303376 98 92 C98.03996094 92.70898438 98.07992188 93.41796875 98.12109375 94.1484375 C99.56557766 124.77149649 93.31225218 167.65711678 72.5 191.4375 C71.01979794 192.97760905 69.52129922 194.5004725 68 196 C67.41347656 196.59683594 66.82695313 197.19367188 66.22265625 197.80859375 C48.07614086 214.93036474 9.07427118 211.29956456 -13.6728735 211.20278788 C-17.17881896 211.19007469 -20.68476991 211.18909414 -24.19073486 211.18673706 C-30.79517932 211.18058158 -37.39955561 211.16425334 -44.00397038 211.14403808 C-51.5375339 211.12149153 -59.07110109 211.11063906 -66.60469007 211.10064721 C-82.06983362 211.07988001 -97.53490523 211.0444081 -113 211 C-113 215.29 -113 219.58 -113 224 C-80 224 -47 224 -13 224 C-13.0825 233.69375 -13.165 243.3875 -13.25 253.375 C-13.26579102 256.41638184 -13.28158203 259.45776367 -13.29785156 262.59130859 C-13.32724148 265.02703723 -13.35807085 267.4627491 -13.390625 269.8984375 C-13.39175293 271.14278564 -13.39288086 272.38713379 -13.39404297 273.66918945 C-13.58468253 285.37492344 -16.38232984 293.23041196 -24.53125 301.68359375 C-45.45641157 321.31748743 -76.3641126 322.83700797 -103.53198242 322.48706055 C-107.45849363 322.43723359 -111.383746 322.42553264 -115.31054688 322.41992188 C-148.68398476 322.27226575 -148.68398476 322.27226575 -164.625 317.875 C-165.40222412 317.66327148 -166.17944824 317.45154297 -166.98022461 317.23339844 C-179.81199112 313.51904282 -190.72484004 307.73714111 -200 298 C-200.56976563 297.43796875 -201.13953125 296.8759375 -201.7265625 296.296875 C-211.15915356 286.33218906 -214.30207842 274.00987071 -214.29052734 260.74731445 C-214.29724457 259.63415359 -214.30396179 258.52099274 -214.31088257 257.37409973 C-214.32983821 253.70378114 -214.33378582 250.03364571 -214.3359375 246.36328125 C-214.34236795 243.80128404 -214.3490965 241.23928756 -214.35610962 238.67729187 C-214.36807694 233.30835964 -214.37187698 227.93949956 -214.37060547 222.57055664 C-214.36940623 216.39196201 -214.39047172 210.21371791 -214.4220928 204.03521186 C-214.45155283 198.06312933 -214.45857729 192.09123482 -214.45738602 186.11907005 C-214.45973662 183.5918758 -214.46852943 181.06467858 -214.48405075 178.5375309 C-214.503789 174.99128328 -214.49784074 171.44592209 -214.48583984 167.8996582 C-214.49707886 166.86911316 -214.50831787 165.83856812 -214.51989746 164.77679443 C-214.40211362 150.98328896 -208.65193824 137.87130047 -199 128 C-187.46754499 118.33181403 -174.79255131 114.8589214 -160.04174805 114.84228516 C-158.55983727 114.83466408 -158.55983727 114.83466408 -157.04798889 114.82688904 C-154.90695257 114.81621073 -152.76590526 114.80758066 -150.62485313 114.80076981 C-147.22134591 114.78892196 -143.81796224 114.76945014 -140.414505 114.74765015 C-130.73853761 114.68626006 -121.06258171 114.63220394 -111.38647461 114.59863281 C-105.45960216 114.57752114 -99.53295386 114.54208192 -93.60621071 114.49787521 C-91.36229936 114.48383824 -89.11834834 114.47502103 -86.87439537 114.47182083 C-61.98208665 114.43258968 -37.91957684 112.17770833 -18.8125 94.4375 C-4.60604835 79.53088936 -0.97574509 61.33274925 -0.68359375 41.40625 C-0.6524221 39.62534973 -0.6524221 39.62534973 -0.62062073 37.80847168 C-0.55556145 34.03903648 -0.4964441 30.26953529 -0.4375 26.5 C-0.39427325 23.93488918 -0.35065767 21.36978488 -0.30664062 18.8046875 C-0.19992509 12.53652683 -0.09807996 6.26830143 0 0 Z " fill="#000000" transform="translate(597,437)"/>
<path d="M0 0 C1.27904205 0.00270905 2.55808411 0.00541809 3.87588501 0.00820923 C52.13172766 0.16345287 52.13172766 0.16345287 73.5 9.4375 C74.55703125 9.87835938 75.6140625 10.31921875 76.703125 10.7734375 C84.1499425 14.16005551 89.77713081 18.63500829 95.5 24.4375 C96.14839844 25.07558594 96.79679687 25.71367187 97.46484375 26.37109375 C105.21000394 34.52300196 109.49366526 44.18604722 109.80541992 55.33862305 C109.82540606 56.02589037 109.84539219 56.71315769 109.86598396 57.4212513 C109.93024447 59.70129879 109.98712077 61.98145055 110.04296875 64.26171875 C110.06354025 65.05356756 110.08411175 65.84541637 110.10530663 66.6612606 C110.55059843 83.89682068 110.75305718 101.13183187 110.79516602 118.37280273 C110.80417334 121.66204499 110.82546783 124.95088488 110.85668945 128.23999023 C110.89544139 132.32754721 110.91395256 136.4147439 110.91844749 140.50247765 C110.92323249 142.02242389 110.93460538 143.54236785 110.95348549 145.06220436 C111.16014637 162.70593737 107.46721464 178.98672752 94.93359375 192.1171875 C82.3351231 204.12921248 65.2182542 208.75603766 48.09350586 208.70874023 C46.59389816 208.71658035 46.59389816 208.71658035 45.06399536 208.72457886 C42.90664666 208.73476835 40.74927373 208.74059038 38.59190178 208.74246025 C35.1631687 208.74614935 31.73471836 208.76294782 28.30604553 208.78321838 C18.56191298 208.83837087 8.81773885 208.86919703 -0.92651367 208.89379883 C-6.9022107 208.90978931 -12.87770758 208.94012977 -18.85330009 208.97856331 C-21.11478975 208.99011534 -23.37631539 208.99614279 -25.63783455 208.99624443 C-49.06624891 208.78675478 -49.06624891 208.78675478 -71 216.1875 C-71.66378662 216.53748047 -72.32757324 216.88746094 -73.01147461 217.24804688 C-78.13153598 220.03450911 -82.48545492 223.18680521 -86.5 227.4375 C-87.39912109 228.30761719 -87.39912109 228.30761719 -88.31640625 229.1953125 C-100.30196512 241.56917241 -102.9238103 258.86393276 -103.01171875 275.39453125 C-103.02966995 276.66350754 -103.04762115 277.93248383 -103.06611633 279.23991394 C-103.11067678 282.56558541 -103.14320408 285.89090383 -103.16955566 289.21673584 C-103.19967591 292.62964687 -103.24609524 296.04233549 -103.29101562 299.45507812 C-103.37545618 306.11578123 -103.44399936 312.77650025 -103.5 319.4375 C-108.87108035 319.48732449 -114.24202305 319.52341866 -119.61328125 319.54736328 C-121.43654731 319.55735643 -123.25979762 319.57095551 -125.08300781 319.58837891 C-144.13811956 319.76578137 -160.67219049 317.8509646 -175.5 304.4375 C-178.53913467 300.97309393 -181.07793755 297.35390831 -183.5 293.4375 C-183.95890625 292.70402344 -184.4178125 291.97054688 -184.890625 291.21484375 C-193.1915245 276.32050826 -195.97259249 258.07100069 -198.5 241.4375 C-198.61859375 240.6832373 -198.7371875 239.92897461 -198.859375 239.15185547 C-204.20435434 204.03565939 -200.77363633 160.98876889 -179.0625 131.4375 C-169.9905393 120.71051945 -158.69095543 112.95614254 -144.4736557 111.18507576 C-142.29122248 111.01632977 -140.11400733 110.90528925 -137.92675781 110.81860352 C-137.07651661 110.780934 -136.22627541 110.74326448 -135.35026932 110.70445347 C-122.84633235 110.21760509 -110.32859371 110.31054139 -97.81748104 110.33610606 C-94.17139316 110.34245762 -90.52530399 110.34295255 -86.87921143 110.34413147 C-80.009172 110.34721063 -73.13914894 110.3553768 -66.26911664 110.36548096 C-58.43325403 110.37674967 -50.59739054 110.38217935 -42.76152182 110.38717639 C-26.6743381 110.39756322 -10.58717181 110.41530184 5.5 110.4375 C5.5 106.1475 5.5 101.8575 5.5 97.4375 C-27.17 97.4375 -59.84 97.4375 -93.5 97.4375 C-93.5 91.4975 -93.5 85.5575 -93.5 79.4375 C-93.50636475 77.53387695 -93.51272949 75.63025391 -93.51928711 73.66894531 C-93.53318284 69.27115151 -93.50328464 64.87460691 -93.45727539 60.47705078 C-93.44404136 58.6102356 -93.4434864 56.74328942 -93.45532227 54.87646484 C-93.52951239 41.35973012 -92.5077557 30.63004049 -83.3815918 19.9609375 C-62.63739729 -0.96300702 -27.07920913 -0.1340003 0 0 Z " fill="#000000" transform="translate(473.5,330.5625)"/>
<path d="M0 0 C6.88421764 6.50176111 7.76271955 18.04374491 9.5 26.9375 C9.69980469 27.92556641 9.89960937 28.91363281 10.10546875 29.93164062 C13.40046751 46.56403881 15.59106264 63.23695059 17.25268555 80.10498047 C17.56085609 83.23331222 17.87639782 86.36082915 18.19335938 89.48828125 C19.23378866 99.820059 20.2175613 110.15671649 21.13671875 120.5 C21.26259117 121.89209686 21.26259117 121.89209686 21.39100647 123.31231689 C23.7870917 150.81758471 23.7870917 150.81758471 18.1875 161.4375 C13.27999742 167.18628873 9.14716727 168.80557496 1.91796875 170.06640625 C1.03497604 170.2308876 0.15198334 170.39536896 -0.75776672 170.56483459 C-10.03248362 172.25896836 -19.34799588 173.65595088 -28.6875 174.9375 C-30.03522995 175.12501328 -30.03522995 175.12501328 -31.41018677 175.3163147 C-52.77659101 178.27421022 -74.22376051 180.39409649 -95.68945312 182.48144531 C-113.08656404 184.1750447 -130.41814562 186.1503306 -147.73657227 188.51977539 C-158.55025906 189.98183888 -169.38133436 191.12597888 -180.23828125 192.2109375 C-189.27026192 193.11685569 -198.2911777 194.11920512 -207.3125 195.125 C-208.09071106 195.21144775 -208.86892212 195.29789551 -209.67071533 195.38696289 C-218.90634164 196.4024687 -218.90634164 196.4024687 -228.12719727 197.54150391 C-233.30874137 198.15494019 -238.41296951 198.22320293 -243.625 198.25 C-245.1409375 198.2809375 -245.1409375 198.2809375 -246.6875 198.3125 C-252.1795955 198.3413299 -256.3610285 198.28296444 -261 195 C-268.52565019 186.80335808 -268.58952798 174.00086791 -269.8125 163.375 C-269.89070984 162.71290527 -269.96891968 162.05081055 -270.04949951 161.36865234 C-271.91206915 145.59825646 -273.50778027 129.79700327 -275.125 114 C-275.25315094 112.75289246 -275.38130188 111.50578491 -275.51333618 110.22088623 C-280.3373317 63.11079929 -280.3373317 63.11079929 -280.4375 45.9375 C-280.47037109 44.87724609 -280.50324219 43.81699219 -280.53710938 42.72460938 C-280.58295471 36.03535823 -279.78115807 30.94387315 -275 26 C-270.61001505 22.57855273 -266.46199738 21.00731439 -261.0703125 19.9453125 C-260.26208038 19.7814505 -259.45384827 19.6175885 -258.62112427 19.44876099 C-246.19054424 17.09993672 -233.53666692 16.17718677 -220.94818115 15.06054688 C-217.51931799 14.75366832 -214.09179127 14.43253455 -210.6640625 14.11328125 C-195.50282764 12.70854302 -180.33229845 11.43550542 -165.15258789 10.24768066 C-132.81793122 7.70733302 -100.56851557 4.91436671 -68.38198853 0.9005127 C-59.71504262 -0.1729888 -51.03685603 -1.13373359 -42.35144043 -2.04489136 C-40.69707147 -2.21926466 -39.04299803 -2.39647228 -37.38928223 -2.57693481 C-7.13952295 -5.87027443 -7.13952295 -5.87027443 0 0 Z " fill="#FDFDFD" transform="translate(906,659)"/>
<path d="M0 0 C6.88072529 1.03866881 13.77162949 1.87553544 20.6875 2.640625 C29.55608551 3.62765804 38.39916281 4.71842465 47.23193359 5.98852539 C55.096719 7.10290133 62.98995344 7.94593024 70.8850708 8.81051636 C78.2596604 9.62351799 85.6298377 10.47608066 93 11.328125 C94.37351624 11.48669479 94.37351624 11.48669479 95.77478027 11.64846802 C106.40112156 12.87861489 117.02057257 14.14994183 127.62890625 15.52734375 C128.56626617 15.64904434 129.5036261 15.77074493 130.46939087 15.89613342 C134.29150963 16.39327657 138.113506 16.89132989 141.93518066 17.39187622 C154.01956371 18.9699008 166.11050622 20.40906887 178.23046875 21.6875 C179.48346771 21.82027847 180.73646667 21.95305695 182.0274353 22.08985901 C188.16426193 22.73773186 194.30211991 23.37164599 200.44238281 23.98608398 C202.67906653 24.21829782 204.91572164 24.45078736 207.15234375 24.68359375 C208.16483688 24.78029358 209.17733002 24.87699341 210.22050476 24.97662354 C216.68566649 25.66191417 223.21637065 26.49312136 228.37109375 30.796875 C228.82613281 31.3846875 229.28117187 31.9725 229.75 32.578125 C230.22308594 33.1659375 230.69617188 33.75375 231.18359375 34.359375 C236.34572941 42.21868189 233.17068437 56.17592532 232.3125 65.078125 C232.18931396 66.35703613 232.06612793 67.63594727 231.93920898 68.95361328 C228.89036578 98.89932621 223.5285134 128.66368335 218.74703979 158.3706665 C218.35966733 160.78424264 217.9757938 163.19833024 217.59399414 165.61279297 C217.01273852 169.270096 216.41523383 172.92431097 215.8125 176.578125 C215.62558594 177.77308594 215.43867187 178.96804688 215.24609375 180.19921875 C212.51269628 196.58150161 212.51269628 196.58150161 206.375 202.015625 C196.75113135 208.49700593 185.79755804 205.86389062 174.8125 204.578125 C174.08352509 204.49398346 173.35455017 204.40984192 172.60348511 204.32315063 C137.31262138 200.22439477 102.13795087 194.9844201 67.0721283 189.29264832 C65.75058495 189.07817802 65.75058495 189.07817802 64.40234375 188.859375 C63.51837418 188.71587112 62.6344046 188.57236725 61.72364807 188.42451477 C54.63557036 187.2792913 47.5401088 186.18660938 40.44140625 185.109375 C39.34333145 184.94266296 38.24525665 184.77595093 37.11390686 184.60418701 C34.88057638 184.26520599 32.64724406 183.92623713 30.41390991 183.58728027 C11.83303716 180.76442375 -6.70465135 177.78227593 -25.20092773 174.44799805 C-32.39603858 173.1544102 -39.5835279 171.90703904 -46.82421875 170.89453125 C-48.66282471 170.63397949 -48.66282471 170.63397949 -50.53857422 170.36816406 C-52.76332501 170.06123695 -54.99017513 169.76897448 -57.21923828 169.49511719 C-58.17427246 169.36395508 -59.12930664 169.23279297 -60.11328125 169.09765625 C-60.93223877 168.99557861 -61.75119629 168.89350098 -62.5949707 168.78833008 C-65.37132575 167.84603433 -66.19671583 166.5582037 -67.6875 164.078125 C-68.92152505 160.37604985 -68.86847483 156.94217013 -68.859375 153.0859375 C-68.85774353 152.28817902 -68.85611206 151.49042053 -68.85443115 150.66848755 C-68.76711211 141.70624964 -67.89631892 132.85711115 -66.9375 123.953125 C-66.75557274 122.2046281 -66.57401994 120.45609219 -66.39282227 118.70751953 C-64.84716354 103.95528305 -63.07717605 89.2340869 -61.14013672 74.52832031 C-60.71985825 71.32477374 -60.31310372 68.11982666 -59.91015625 64.9140625 C-53.05107961 11.21834186 -53.05107961 11.21834186 -41.6875 0.078125 C-31.14462396 -7.74751495 -11.86784206 -1.80386784 0 0 Z " fill="#FDFDFD" transform="translate(710.6875,212.921875)"/>
<path d="M0 0 C2.89283836 0.00329683 5.78476598 -0.0211013 8.67749023 -0.0456543 C24.91211673 -0.09942418 40.49082482 1.90897957 56.34741211 5.31567383 C57.06572708 5.46821121 57.78404205 5.6207486 58.52412415 5.77790833 C60.51928711 6.25317383 60.51928711 6.25317383 63.59741211 7.31567383 C64.59741211 10.31567383 64.59741211 10.31567383 63.59741211 13.31567383 C63.50586587 16.19138284 63.47144247 19.04240668 63.48388672 21.91796875 C63.48366768 23.23535789 63.48366768 23.23535789 63.48344421 24.57936096 C63.48414139 27.48497988 63.49192472 30.39053485 63.49975586 33.29614258 C63.50162073 35.30967677 63.50304431 37.32321141 63.50404358 39.33674622 C63.50786331 44.63859305 63.51768899 49.94041252 63.52874756 55.24224854 C63.53897334 60.65148549 63.54354371 66.06072687 63.54858398 71.4699707 C63.55931172 82.0852171 63.57638165 92.70044319 63.59741211 103.31567383 C53.32838396 103.82332865 43.0592025 104.32776129 32.78983307 104.82846737 C28.01744797 105.0612489 23.24511503 105.29499763 18.47290039 105.53125 C-2.46244168 106.56693697 -23.38993901 107.50710728 -44.3425293 108.10742188 C-54.51212619 108.39898043 -64.67589194 108.81537676 -74.84008789 109.25317383 C-75.83573761 109.29547119 -76.83138733 109.33776855 -77.85720825 109.38134766 C-90.19391577 109.90796136 -102.51765133 110.52211548 -114.84008789 111.31567383 C-152.57039462 113.70994861 -190.35906271 114.6849889 -228.14819336 115.6184082 C-231.24472253 115.69539911 -234.34123776 115.77292858 -237.43774414 115.85083008 C-238.19208929 115.86972479 -238.94643444 115.8886195 -239.72363853 115.90808678 C-248.53807411 116.13108796 -257.34519898 116.41398389 -266.15258789 116.83911133 C-279.84681197 117.4950546 -293.55235405 117.6512881 -307.25915527 117.84790039 C-310.78682057 117.89922092 -314.31442708 117.95431424 -317.84204102 118.0090332 C-324.69550528 118.11481382 -331.54902324 118.21661472 -338.40258789 118.31567383 C-339.26754889 112.36251007 -339.54098356 106.60563633 -339.51611328 100.5949707 C-339.51625931 99.65745972 -339.51640533 98.71994873 -339.51655579 97.75402832 C-339.51586373 94.6808026 -339.50810467 91.60763885 -339.50024414 88.53442383 C-339.49837745 86.39351433 -339.49695473 84.25260441 -339.49595642 82.11169434 C-339.49215105 76.49591885 -339.48233777 70.88016951 -339.47125244 65.2644043 C-339.46099565 59.5262894 -339.45644968 53.78817026 -339.45141602 48.05004883 C-339.44071363 36.80524572 -339.42366112 25.56046195 -339.40258789 14.31567383 C-313.63146245 12.32960021 -287.86565877 10.64671492 -262.04974365 9.37200928 C-257.24005177 9.13357592 -252.43067075 8.88896267 -247.62125874 8.6449604 C-243.61219947 8.44166796 -239.60308312 8.23973311 -235.59379578 8.04098511 C-227.97288588 7.66153203 -220.35431107 7.26222548 -212.73779297 6.80249023 C-184.70768106 5.12815726 -156.65933499 4.48985243 -128.59008789 3.81567383 C-118.89593995 3.58147122 -109.20192289 3.34251655 -99.50805664 3.09692383 C-98.32345541 3.06714132 -97.13885418 3.03735882 -95.91835594 3.00667381 C-79.09237012 2.57888165 -62.2800848 1.98210072 -45.46508789 1.24145508 C-30.3078023 0.57470558 -15.17569869 -0.0358387 0 0 Z " fill="#FEFEFE" transform="translate(548.402587890625,137.684326171875)"/>
<path d="M0 0 C337.92 0 675.84 0 1024 0 C1024 337.92 1024 675.84 1024 1024 C686.08 1024 348.16 1024 0 1024 C0 686.08 0 348.16 0 0 Z M10 10 C10 341.32 10 672.64 10 1014 C341.32 1014 672.64 1014 1014 1014 C1014 682.68 1014 351.36 1014 10 C682.68 10 351.36 10 10 10 Z " fill="#040404" transform="translate(0,0)"/>
<path d="M0 0 C0.14689667 3.92440704 0.28897553 7.84896103 0.42724609 11.77368164 C0.49733715 13.73787777 0.57086636 15.70195028 0.64453125 17.66601562 C0.90491301 25.12409316 1.03003832 32.56408187 1.01367188 40.02612305 C1.01268494 40.89435448 1.011698 41.76258591 1.01068115 42.65712738 C1.00813409 44.77141972 1.00421205 46.88571032 1 49 C-33.65782303 51.05457928 -68.31879337 52.82185229 -103.0065155 54.28478622 C-106.71128372 54.4411415 -110.41600907 54.5984827 -114.12072754 54.75601196 C-130.83861727 55.46603131 -147.557076 56.16169514 -164.27598572 56.84725952 C-167.91679096 56.99658718 -171.55757803 57.14635212 -175.19836426 57.29614258 C-226.03960834 59.38411874 -276.87568781 61.20194964 -327.75 62.25 C-328.75103256 62.27082516 -329.75206512 62.29165031 -330.78343201 62.31310654 C-354.52461385 62.80488616 -378.25332001 63.13088563 -402 63 C-402.62287478 55.68127656 -403.15194132 48.42070961 -403.09765625 41.07421875 C-403.0962413 40.3157515 -403.09482635 39.55728424 -403.09336853 38.77583313 C-403.08788365 36.41301081 -403.07535576 34.05029243 -403.0625 31.6875 C-403.05747003 30.06054827 -403.0529098 28.43359501 -403.04882812 26.80664062 C-403.03795245 22.87105525 -403.02077226 18.93554507 -403 15 C-380.88040112 13.86798537 -358.77098881 12.9010302 -336.625 12.5 C-292.61274396 11.68797592 -248.61527318 10.39442117 -204.63233566 8.59481049 C-202.36731074 8.50224009 -200.10225253 8.4105219 -197.83718872 8.31890869 C-181.10949286 7.63930475 -164.39645204 6.81899009 -147.68398476 5.83305168 C-135.48610887 5.11538484 -123.28972684 4.57189701 -111.07739258 4.16546631 C-95.45117966 3.64262971 -79.83251324 3.02381314 -64.21875 2.20703125 C-62.24612183 2.10410515 -62.24612183 2.10410515 -60.23364258 1.99909973 C-53.86613347 1.66413425 -47.49925167 1.31978187 -41.1328125 0.96508789 C-27.40442155 0.21691128 -13.74870467 -0.18324203 0 0 Z " fill="#FDFDFD" transform="translate(613,247)"/>
<path d="M0 0 C6.88072529 1.03866881 13.77162949 1.87553544 20.6875 2.640625 C29.55608551 3.62765804 38.39916281 4.71842465 47.23193359 5.98852539 C55.096719 7.10290133 62.98995344 7.94593024 70.8850708 8.81051636 C78.2596604 9.62351799 85.6298377 10.47608066 93 11.328125 C94.37351624 11.48669479 94.37351624 11.48669479 95.77478027 11.64846802 C106.40112156 12.87861489 117.02057257 14.14994183 127.62890625 15.52734375 C128.56626617 15.64904434 129.5036261 15.77074493 130.46939087 15.89613342 C134.29150963 16.39327657 138.113506 16.89132989 141.93518066 17.39187622 C154.01956371 18.9699008 166.11050622 20.40906887 178.23046875 21.6875 C179.48346771 21.82027847 180.73646667 21.95305695 182.0274353 22.08985901 C188.16426193 22.73773186 194.30211991 23.37164599 200.44238281 23.98608398 C202.67906653 24.21829782 204.91572164 24.45078736 207.15234375 24.68359375 C208.16483688 24.78029358 209.17733002 24.87699341 210.22050476 24.97662354 C216.68566649 25.66191417 223.21637065 26.49312136 228.37109375 30.796875 C228.82613281 31.3846875 229.28117187 31.9725 229.75 32.578125 C230.22308594 33.1659375 230.69617188 33.75375 231.18359375 34.359375 C236.34572941 42.21868189 233.17068437 56.17592532 232.3125 65.078125 C232.18931396 66.35703613 232.06612793 67.63594727 231.93920898 68.95361328 C228.89036578 98.89932621 223.5285134 128.66368335 218.74703979 158.3706665 C218.35966733 160.78424264 217.9757938 163.19833024 217.59399414 165.61279297 C217.01273852 169.270096 216.41523383 172.92431097 215.8125 176.578125 C215.62558594 177.77308594 215.43867187 178.96804688 215.24609375 180.19921875 C212.51269628 196.58150161 212.51269628 196.58150161 206.375 202.015625 C196.75113135 208.49700593 185.79755804 205.86389062 174.8125 204.578125 C174.08352509 204.49398346 173.35455017 204.40984192 172.60348511 204.32315063 C137.31262138 200.22439477 102.13795087 194.9844201 67.0721283 189.29264832 C65.75058495 189.07817802 65.75058495 189.07817802 64.40234375 188.859375 C63.51837418 188.71587112 62.6344046 188.57236725 61.72364807 188.42451477 C54.63557036 187.2792913 47.5401088 186.18660938 40.44140625 185.109375 C39.34333145 184.94266296 38.24525665 184.77595093 37.11390686 184.60418701 C34.88057638 184.26520599 32.64724406 183.92623713 30.41390991 183.58728027 C11.83303716 180.76442375 -6.70465135 177.78227593 -25.20092773 174.44799805 C-32.39603858 173.1544102 -39.5835279 171.90703904 -46.82421875 170.89453125 C-48.66282471 170.63397949 -48.66282471 170.63397949 -50.53857422 170.36816406 C-52.76332501 170.06123695 -54.99017513 169.76897448 -57.21923828 169.49511719 C-58.17427246 169.36395508 -59.12930664 169.23279297 -60.11328125 169.09765625 C-60.93223877 168.99557861 -61.75119629 168.89350098 -62.5949707 168.78833008 C-65.37132575 167.84603433 -66.19671583 166.5582037 -67.6875 164.078125 C-68.92152505 160.37604985 -68.86847483 156.94217013 -68.859375 153.0859375 C-68.85774353 152.28817902 -68.85611206 151.49042053 -68.85443115 150.66848755 C-68.76711211 141.70624964 -67.89631892 132.85711115 -66.9375 123.953125 C-66.75557274 122.2046281 -66.57401994 120.45609219 -66.39282227 118.70751953 C-64.84716354 103.95528305 -63.07717605 89.2340869 -61.14013672 74.52832031 C-60.71985825 71.32477374 -60.31310372 68.11982666 -59.91015625 64.9140625 C-53.05107961 11.21834186 -53.05107961 11.21834186 -41.6875 0.078125 C-31.14462396 -7.74751495 -11.86784206 -1.80386784 0 0 Z M-36.5 8.390625 C-54.40526147 30.38851767 -52.52631403 77.90636156 -55.6875 105.078125 C-55.77191345 105.80237671 -55.8563269 106.52662842 -55.94329834 107.27282715 C-56.44954782 111.62368421 -56.94709789 115.9754546 -57.4375 120.328125 C-57.55295166 121.34825684 -57.66840332 122.36838867 -57.78735352 123.41943359 C-58.86637333 133.21814419 -59.84965792 143.02449049 -59.75 152.890625 C-59.74097656 154.07269531 -59.73195313 155.25476563 -59.72265625 156.47265625 C-59.71105469 157.33246094 -59.69945312 158.19226563 -59.6875 159.078125 C-38.32821001 163.2152717 -16.87888514 166.72288941 4.6015625 170.16210938 C9.33041848 170.91955043 14.05807373 171.68420807 18.78541565 172.45103455 C37.81638588 175.53584948 56.85039335 178.51391563 75.95703125 181.09204102 C85.06821253 182.32593517 94.16348039 183.64446374 103.25390625 185.0234375 C125.62184508 188.41090904 147.9461405 191.73550635 170.46264648 193.97485352 C171.17093597 194.04531891 171.87922546 194.1157843 172.60897827 194.18838501 C174.47399344 194.37150809 176.33963444 194.54822719 178.20532227 194.72436523 C180.9582665 195.03779465 183.60349296 195.5099692 186.3125 196.078125 C190.84517435 196.44640479 194.94255993 196.57363524 199.25 195.015625 C203.77837089 190.76170083 204.82615159 184.45213054 205.890625 178.55078125 C206.02279419 177.82564835 206.15496338 177.10051544 206.2911377 176.35340881 C206.72492483 173.95081154 207.14459466 171.54603237 207.5625 169.140625 C207.71046021 168.3037616 207.85842041 167.46689819 208.01086426 166.60467529 C213.42086509 135.95879801 218.11762089 105.03910008 221.3125 74.078125 C221.41401367 73.09763184 221.51552734 72.11713867 221.62011719 71.10693359 C221.92354814 68.11904802 222.21530016 65.13035023 222.5 62.140625 C222.58419189 61.26970215 222.66838379 60.3987793 222.75512695 59.50146484 C222.97689471 57.02814165 223.15298924 54.55618596 223.3125 52.078125 C223.42392334 50.75530518 223.42392334 50.75530518 223.53759766 49.40576172 C223.60599854 48.09696045 223.60599854 48.09696045 223.67578125 46.76171875 C223.72645752 45.9823999 223.77713379 45.20308105 223.8293457 44.40014648 C223.0264478 40.79298449 221.15877699 39.33871738 218.3125 37.078125 C215.38193233 36.14952715 215.38193233 36.14952715 212.06640625 35.953125 C210.72538001 35.81421823 209.38440036 35.67486122 208.04345703 35.53515625 C207.29702942 35.46506348 206.55060181 35.3949707 205.78155518 35.32275391 C202.03642414 34.95169403 198.30393128 34.48449097 194.56845093 34.02758789 C191.34784662 33.63396434 188.12629025 33.24926507 184.90429688 32.8671875 C183.80980225 32.73731445 182.71530762 32.60744141 181.58764648 32.47363281 C179.36078325 32.20975172 177.13389517 31.94608017 174.90698242 31.68261719 C171.63443279 31.29503729 168.36212992 30.90542212 165.08984375 30.515625 C164.1154686 30.400979 163.14109344 30.28633301 162.13719177 30.16821289 C156.88579079 29.54174069 151.64942187 28.84972472 146.4152832 28.09179688 C139.58442078 27.10377013 132.74337832 26.24255387 125.890625 25.421875 C124.66575378 25.27407593 123.44088257 25.12627686 122.17889404 24.97399902 C119.60763189 24.66406444 117.0362806 24.35486851 114.46484375 24.04638672 C110.58571732 23.58091096 106.70690143 23.11291365 102.828125 22.64453125 C91.96400072 21.3353822 81.09997829 20.03428595 70.22206116 18.84469604 C59.58765982 17.67724331 48.96435577 16.41197446 38.34008789 15.15625 C35.79986928 14.85650776 33.25950637 14.55798556 30.71899414 14.26074219 C7.25262226 11.51485551 7.25262226 11.51485551 -3.72021484 9.95996094 C-5.02681564 9.77517181 -6.33341644 9.59038269 -7.67961121 9.3999939 C-10.16090368 9.04488416 -12.64137274 8.68395198 -15.12080383 8.31607056 C-25.99576097 6.3527398 -25.99576097 6.3527398 -36.5 8.390625 Z " fill="#060606" transform="translate(710.6875,212.921875)"/>
<path d="M0 0 C6.88421764 6.50176111 7.76271955 18.04374491 9.5 26.9375 C9.69980469 27.92556641 9.89960937 28.91363281 10.10546875 29.93164062 C13.40046751 46.56403881 15.59106264 63.23695059 17.25268555 80.10498047 C17.56085609 83.23331222 17.87639782 86.36082915 18.19335938 89.48828125 C19.23378866 99.820059 20.2175613 110.15671649 21.13671875 120.5 C21.26259117 121.89209686 21.26259117 121.89209686 21.39100647 123.31231689 C23.7870917 150.81758471 23.7870917 150.81758471 18.1875 161.4375 C13.27999742 167.18628873 9.14716727 168.80557496 1.91796875 170.06640625 C1.03497604 170.2308876 0.15198334 170.39536896 -0.75776672 170.56483459 C-10.03248362 172.25896836 -19.34799588 173.65595088 -28.6875 174.9375 C-30.03522995 175.12501328 -30.03522995 175.12501328 -31.41018677 175.3163147 C-52.77659101 178.27421022 -74.22376051 180.39409649 -95.68945312 182.48144531 C-113.08656404 184.1750447 -130.41814562 186.1503306 -147.73657227 188.51977539 C-158.55025906 189.98183888 -169.38133436 191.12597888 -180.23828125 192.2109375 C-189.27026192 193.11685569 -198.2911777 194.11920512 -207.3125 195.125 C-208.09071106 195.21144775 -208.86892212 195.29789551 -209.67071533 195.38696289 C-218.90634164 196.4024687 -218.90634164 196.4024687 -228.12719727 197.54150391 C-233.30874137 198.15494019 -238.41296951 198.22320293 -243.625 198.25 C-245.1409375 198.2809375 -245.1409375 198.2809375 -246.6875 198.3125 C-252.1795955 198.3413299 -256.3610285 198.28296444 -261 195 C-268.52565019 186.80335808 -268.58952798 174.00086791 -269.8125 163.375 C-269.89070984 162.71290527 -269.96891968 162.05081055 -270.04949951 161.36865234 C-271.91206915 145.59825646 -273.50778027 129.79700327 -275.125 114 C-275.25315094 112.75289246 -275.38130188 111.50578491 -275.51333618 110.22088623 C-280.3373317 63.11079929 -280.3373317 63.11079929 -280.4375 45.9375 C-280.47037109 44.87724609 -280.50324219 43.81699219 -280.53710938 42.72460938 C-280.58295471 36.03535823 -279.78115807 30.94387315 -275 26 C-270.61001505 22.57855273 -266.46199738 21.00731439 -261.0703125 19.9453125 C-260.26208038 19.7814505 -259.45384827 19.6175885 -258.62112427 19.44876099 C-246.19054424 17.09993672 -233.53666692 16.17718677 -220.94818115 15.06054688 C-217.51931799 14.75366832 -214.09179127 14.43253455 -210.6640625 14.11328125 C-195.50282764 12.70854302 -180.33229845 11.43550542 -165.15258789 10.24768066 C-132.81793122 7.70733302 -100.56851557 4.91436671 -68.38198853 0.9005127 C-59.71504262 -0.1729888 -51.03685603 -1.13373359 -42.35144043 -2.04489136 C-40.69707147 -2.21926466 -39.04299803 -2.39647228 -37.38928223 -2.57693481 C-7.13952295 -5.87027443 -7.13952295 -5.87027443 0 0 Z M-32.37792969 6.27416992 C-34.6572549 6.55571458 -36.93665771 6.83663154 -39.21612549 7.11701965 C-40.42386879 7.26751078 -41.63161209 7.4180019 -42.87595367 7.57305336 C-68.6091093 10.75868468 -94.37797528 13.36329618 -120.203125 15.67578125 C-121.45643081 15.78819475 -121.45643081 15.78819475 -122.73505592 15.90287924 C-132.97288763 16.8206579 -143.21174902 17.72655513 -153.45116663 18.62645233 C-167.37991863 19.85072328 -181.30743679 21.08893108 -195.23469615 22.33005399 C-200.08381334 22.76186893 -204.93321717 23.19024333 -209.78291845 23.61544669 C-212.78731673 23.87932538 -215.79150616 24.14552985 -218.7956562 24.41221809 C-220.81002266 24.59028431 -222.82464526 24.76544596 -224.83927917 24.94046021 C-242.9651248 26.50327281 -242.9651248 26.50327281 -260.8125 29.875 C-261.81120117 30.09736328 -261.81120117 30.09736328 -262.83007812 30.32421875 C-265.48619448 30.98222945 -267.5945327 31.6500963 -269.68359375 33.45288086 C-271.77202561 37.4937951 -271.38295166 41.47106849 -271.29296875 45.94921875 C-271.28210739 46.92839767 -271.27124603 47.9075766 -271.26005554 48.91642761 C-271.0901545 58.92791789 -270.27835558 68.8514854 -269.3125 78.8125 C-269.13365999 80.73277138 -268.95545399 82.6531019 -268.77783203 84.57348633 C-266.36780124 110.39076248 -263.76178841 136.19639791 -260.91015625 161.96875 C-260.83175507 162.6784343 -260.75335388 163.38811859 -260.6725769 164.11930847 C-259.81217791 176.69584987 -259.81217791 176.69584987 -255 188 C-246.89464382 192.05267809 -232.10908784 188.27213842 -223.25 187.4375 C-222.33471527 187.35274414 -221.41943054 187.26798828 -220.47640991 187.18066406 C-202.84802306 185.53427499 -185.304576 183.32784177 -167.75039673 181.03466797 C-153.16190795 179.13059745 -138.58356865 177.33576526 -123.9375 175.9375 C-123.16369995 175.86354004 -122.3898999 175.78958008 -121.59265137 175.71337891 C-120.42675476 175.60195557 -120.42675476 175.60195557 -119.23730469 175.48828125 C-97.12346322 173.37106474 -75.05268828 170.84920527 -52.98059082 168.33850098 C-50.22650688 168.02572403 -47.47218828 167.71512044 -44.71777344 167.40527344 C-31.34783129 165.89687702 -17.99037796 164.36639405 -4.75 161.9375 C-3.91525146 161.78716309 -3.08050293 161.63682617 -2.22045898 161.48193359 C2.00623833 160.64602171 5.64243633 159.84902757 9 157 C12.43394773 151.20144791 12.53954323 145.75645178 12.5 139.125 C12.49359497 137.42041626 12.49359497 137.42041626 12.48706055 135.68139648 C11.8015282 97.95289389 6.59470542 58.95133643 -1.125 22 C-1.36661865 20.83557373 -1.6082373 19.67114746 -1.85717773 18.47143555 C-2.09251221 17.40836182 -2.32784668 16.34528809 -2.5703125 15.25 C-2.77414551 14.32703125 -2.97797852 13.4040625 -3.18798828 12.453125 C-4.07700384 9.76736783 -5.08636415 8.07675971 -7 6 C-14.93138826 3.35620391 -24.24502144 5.21846758 -32.37792969 6.27416992 Z " fill="#060606" transform="translate(906,659)"/>
<path d="M0 0 C0 33.99 0 67.98 0 103 C-45 105 -45 105 -60 105 C-60.97793143 91.13275613 -61.47149152 77.25991064 -61.92993164 63.36669922 C-62.06152162 59.40445936 -62.19949814 55.44247611 -62.33789062 51.48046875 C-62.84146356 36.64713548 -63.13063211 21.84174244 -63 7 C-58.02914795 5.0985188 -53.37068334 4.44872709 -48.12109375 3.96484375 C-47.27257339 3.88126114 -46.42405304 3.79767853 -45.54981995 3.71156311 C-42.84629985 3.44702581 -40.14195578 3.19227282 -37.4375 2.9375 C-35.64772696 2.7629789 -33.85801268 2.58785408 -32.06835938 2.41210938 C-7.31334125 0 -7.31334125 0 0 0 Z " fill="#FDFDFD" transform="translate(201,153)"/>
<path d="M0 0 C331.98 0 663.96 0 1006 0 C1006.33 0.66 1006.66 1.32 1007 2 C1004.09360096 3.45319952 1001.56882677 3.12460344 998.32033765 3.1241985 C997.6213097 3.12547659 996.92228176 3.12675468 996.20207114 3.1280715 C993.83125223 3.13116366 991.46049844 3.12705349 989.08968163 3.12304783 C987.37617862 3.12378665 985.66267575 3.12496435 983.94917331 3.12654402 C979.20233171 3.12963026 974.45551132 3.12642418 969.70867129 3.12226575 C964.57083048 3.11885194 959.43299198 3.12120182 954.29515076 3.12284851 C945.26819581 3.12493309 936.24124743 3.12326762 927.21429324 3.11921513 C913.61698492 3.11313081 900.0196806 3.11284375 886.42237115 3.11368043 C863.63929608 3.11492461 840.85622466 3.11162922 818.07315063 3.10557556 C787.26727228 3.09740754 756.46139786 3.0954735 725.65551758 3.09460449 C651.56201113 3.08934748 577.46850551 3.07538646 503.375 3.0625 C337.92125 3.041875 172.4675 3.02125 2 3 C2 334.32 2 665.64 2 1007 C1.67 1007 1.34 1007 1 1007 C1 675.68 1 344.36 1 3 C0.34 2.67 -0.32 2.34 -1 2 C-0.67 1.34 -0.34 0.68 0 0 Z " fill="#303030" transform="translate(8,7)"/>
<path d="M0 0 C1.39624955 2.7924991 1.3288035 5.29739522 1.53515625 8.4140625 C1.57813339 9.06136322 1.62111053 9.70866394 1.66539001 10.37557983 C1.75573728 11.75578029 1.84385244 13.13612835 1.92993164 14.51660156 C2.05897165 16.56888428 2.19785341 18.6203174 2.33789062 20.671875 C2.95707118 30.12495447 3.10675091 39.52842649 3 49 C-41.20228616 52.58165209 -41.20228616 52.58165209 -61 52 C-61.85501378 35.32268325 -62.13210503 18.69807545 -62 2 C-41.30120015 0.63520408 -20.75232412 -0.34249107 0 0 Z " fill="#FCFCFC" transform="translate(219,653)"/>
<path d="M0 0 C1.09769632 6.43858849 1.33275533 12.85440295 1.5625 19.375 C1.6049585 20.52081543 1.64741699 21.66663086 1.69116211 22.84716797 C2.00688181 31.90457551 2.08997005 40.93832926 2 50 C-11.9096042 51.72088001 -25.67993106 52.39721536 -39.6875 52.625 C-41.6725405 52.66332062 -43.65756689 52.7023796 -45.64257812 52.7421875 C-50.42826634 52.83659506 -55.2140311 52.92115795 -60 53 C-60.80652367 36.32254901 -61.13958375 19.69636365 -61 3 C-57.57989835 2.24362399 -54.32848111 1.83532635 -50.83007812 1.70288086 C-49.32326477 1.6429319 -49.32326477 1.6429319 -47.78601074 1.58177185 C-46.7119397 1.54318558 -45.63786865 1.5045993 -44.53125 1.46484375 C-42.86165222 1.40037804 -42.86165222 1.40037804 -41.1583252 1.33460999 C-37.60568135 1.19848591 -34.05285274 1.06804534 -30.5 0.9375 C-28.10805962 0.84605012 -25.71613234 0.75425713 -23.32421875 0.66210938 C-21.03907422 0.57521197 -18.75391831 0.48861338 -16.46875 0.40234375 C-14.85764343 0.34142799 -14.85764343 0.34142799 -13.21398926 0.27928162 C-12.20944702 0.2424678 -11.20490479 0.20565399 -10.16992188 0.16772461 C-8.85018372 0.11895424 -8.85018372 0.11895424 -7.50378418 0.06919861 C-5.00110991 0.00003068 -2.50349026 -0.01205558 0 0 Z " fill="#FCFCFC" transform="translate(213,540)"/>
<path d="M0 0 C0.42907499 6.47774473 0.85611465 12.95562134 1.28173828 19.43359375 C1.42677681 21.63740073 1.57228159 23.84117707 1.71826172 26.04492188 C1.92798425 29.21216017 2.13603093 32.37950476 2.34375 35.546875 C2.40937134 36.53242371 2.47499268 37.51797241 2.54260254 38.53338623 C2.60266479 39.4540387 2.66272705 40.37469116 2.72460938 41.32324219 C2.77790405 42.1315448 2.83119873 42.93984741 2.8861084 43.77264404 C2.99212896 45.84606768 3 47.92386755 3 50 C-2.8796832 50.96779282 -8.69834955 51.2969177 -14.6484375 51.53515625 C-15.66040192 51.57813339 -16.67236633 51.62111053 -17.71499634 51.66539001 C-19.84801386 51.75523924 -21.98110365 51.84338708 -24.11425781 51.92993164 C-27.35760834 52.06179293 -30.60067645 52.19940076 -33.84375 52.33789062 C-35.92446496 52.42481995 -38.00519373 52.51141932 -40.0859375 52.59765625 C-41.04559418 52.63826675 -42.00525085 52.67887726 -42.99398804 52.72071838 C-48.66811002 52.94833707 -54.32128802 53.03740295 -60 53 C-60.98947011 42.23480799 -61.30647024 31.48986581 -61.5625 20.6875 C-61.60581405 18.964185 -61.64943181 17.2408776 -61.69335938 15.51757812 C-61.79906713 11.34513131 -61.90069031 7.1726038 -62 3 C-61.22213135 2.98018066 -60.4442627 2.96036133 -59.64282227 2.93994141 C-44.71749887 2.54339336 -29.86177527 1.99884514 -14.98461914 0.66064453 C-13.55557251 0.53278564 -13.55557251 0.53278564 -12.09765625 0.40234375 C-11.27789307 0.32491943 -10.45812988 0.24749512 -9.61352539 0.16772461 C-6.40490386 -0.03819066 -3.21427276 -0.02540635 0 0 Z " fill="#FCFCFC" transform="translate(216,596)"/>
<path d="M0 0 C19.8 0 39.6 0 60 0 C61.18451025 36.57175399 61.18451025 36.57175399 61 50 C54.16550062 50.84019156 47.37959772 51.29741858 40.5 51.5625 C39.43080322 51.6049585 38.36160645 51.64741699 37.26000977 51.69116211 C25.50721162 52.1168702 13.75847227 52.09263001 2 52 C1.71280565 45.88031616 1.42805346 39.76052523 1.14550781 33.640625 C1.04916477 31.56116713 0.95216872 29.48173941 0.85449219 27.40234375 C0.71375237 24.40372387 0.57540527 21.40500141 0.4375 18.40625 C0.39375244 17.48509399 0.35000488 16.56393799 0.30493164 15.61486816 C0.26489014 14.73455933 0.22484863 13.85425049 0.18359375 12.94726562 C0.14806396 12.18337524 0.11253418 11.41948486 0.07592773 10.63244629 C-0.02625638 7.0896805 0 3.54423913 0 0 Z " fill="#FBFBFB" transform="translate(143,317)"/>
<path d="M0 0 C0.29083455 4.56710803 0.57532292 9.13455662 0.85449219 13.70239258 C0.949848 15.24904463 1.04679526 16.79559957 1.14550781 18.34204102 C1.79761665 28.57948429 2.13607829 38.74026388 2 49 C-18.33266699 50.66629395 -38.6101376 51.526265 -59 52 C-59.86042694 40.68987258 -60.28285797 29.3999867 -60.5625 18.0625 C-60.60584289 16.39647715 -60.64946122 14.73046144 -60.69335938 13.06445312 C-60.79873508 9.04304366 -60.90042956 5.02155722 -61 1 C-40.65190139 0.08733328 -20.36403082 -0.1250153 0 0 Z " fill="#FBFBFB" transform="translate(210,485)"/>
<path d="M0 0 C1.79231643 0.00503597 3.58463426 0.00959509 5.37695312 0.01367188 C9.68883803 0.02448638 14.00065254 0.04162949 18.3125 0.0625 C20.06289913 16.716783 20.85994145 33.32519229 21.3125 50.0625 C20.47702637 50.08755615 19.64155273 50.1126123 18.78076172 50.13842773 C15.60848615 50.23494861 12.43630419 50.33406986 9.26416016 50.43481445 C7.24517694 50.49818954 5.22610466 50.55870712 3.20703125 50.61914062 C-4.40374056 50.86283529 -11.97454834 51.27844757 -19.56689453 51.85522461 C-23.5728288 52.12130489 -27.54977874 52.17706125 -31.5625 52.125 C-32.26246094 52.12048828 -32.96242187 52.11597656 -33.68359375 52.11132812 C-35.35160278 52.09990341 -37.01956577 52.08199534 -38.6875 52.0625 C-39.79188145 41.11206613 -39.80478479 30.24313689 -39.75 19.25 C-39.74497152 17.4785169 -39.74041102 15.70703241 -39.73632812 13.93554688 C-39.7254372 9.64449613 -39.70824804 5.35351394 -39.6875 1.0625 C-26.44270248 0.22603611 -13.26908607 -0.06625168 0 0 Z " fill="#FCFCFC" transform="translate(187.6875,428.9375)"/>
<path d="M0 0 C19.14 0 38.28 0 58 0 C59.125 10.125 59.125 10.125 59.20532227 13.60180664 C59.2352401 14.77200096 59.2352401 14.77200096 59.26576233 15.96583557 C59.28247482 16.7724614 59.29918732 17.57908722 59.31640625 18.41015625 C59.33718735 19.26306747 59.35796844 20.1159787 59.37937927 20.99473572 C59.44407199 23.68391911 59.503381 26.3731889 59.5625 29.0625 C59.60576184 30.90039909 59.64937839 32.73828986 59.69335938 34.57617188 C59.79966934 39.05069571 59.90115562 43.52530527 60 48 C51.29966227 48.92351853 42.61782207 49.30226197 33.875 49.5625 C32.85634354 49.59426834 32.85634354 49.59426834 31.81710815 49.62667847 C21.54236108 49.94655795 11.2796427 50.13746922 1 50 C0.82537625 45.97947384 0.66198039 41.95855378 0.5 37.9375 C0.45230469 36.84244141 0.40460938 35.74738281 0.35546875 34.61914062 C-0.10059565 23.05465054 0 11.60875988 0 0 Z " fill="#FCFCFC" transform="translate(146,374)"/>
<path d="M0 0 C1.03266792 16.00635276 1.11295306 31.96414039 1 48 C-6.39361648 48.9350057 -13.74142965 49.31337687 -21.1875 49.5625 C-22.4053418 49.6049585 -23.62318359 49.64741699 -24.87792969 49.69116211 C-35.92114189 50.04913735 -46.95241803 50.10145739 -58 50 C-58.96642564 39.40014872 -59.30293557 28.82328505 -59.5625 18.1875 C-59.60581834 16.51236197 -59.6494362 14.83723166 -59.69335938 13.16210938 C-59.79901768 9.10815339 -59.90065165 5.05411533 -60 1 C-52.32462765 0.86951694 -44.64925377 0.73912434 -36.97387791 0.60884857 C-33.4102375 0.54835928 -29.84659764 0.48783834 -26.28295898 0.42724609 C-22.18994298 0.35765426 -18.09692469 0.28819823 -14.00390625 0.21875 C-12.71851456 0.19687622 -11.43312286 0.17500244 -10.10877991 0.15246582 C-8.92763107 0.13244507 -7.74648224 0.11242432 -6.52954102 0.09179688 C-5.48363297 0.07403198 -4.43772491 0.05626709 -3.36012268 0.03796387 C-1 0 -1 0 0 0 Z " fill="#FDFDFD" transform="translate(201,262)"/>
<path d="M0 0 C0.96059127 9.74499219 1.30194527 19.46803095 1.5625 29.25 C1.60581949 30.78516475 1.64943737 32.32032112 1.69335938 33.85546875 C1.79900443 37.57022235 1.90064134 41.2850723 2 45 C-12.05237724 45.98502123 -26.04224815 46.12102171 -40.125 46.0625 C-42.25911352 46.05746901 -44.3932282 46.05290896 -46.52734375 46.04882812 C-51.68492533 46.0379629 -56.84244927 46.02078884 -62 46 C-62.76067507 40.49931768 -63.18837351 35.11122818 -63.31640625 29.5625 C-63.3475779 28.41418701 -63.3475779 28.41418701 -63.37937927 27.24267578 C-63.44408136 24.8285302 -63.50338541 22.41428819 -63.5625 20 C-63.60576095 18.35025097 -63.64937748 16.70051122 -63.69335938 15.05078125 C-63.79967969 11.03394967 -63.90116345 7.01702241 -64 3 C-56.39378582 2.60734518 -48.78750166 2.21607114 -41.18112659 1.82654572 C-37.64895483 1.64561863 -34.11680855 1.46422117 -30.5847168 1.28173828 C-26.52139324 1.07183058 -22.45796633 0.86398761 -18.39453125 0.65625 C-16.49741142 0.55781799 -16.49741142 0.55781799 -14.56196594 0.45739746 C-13.38111923 0.39733521 -12.20027252 0.33727295 -10.98364258 0.27539062 C-9.42810417 0.19544861 -9.42810417 0.19544861 -7.84114075 0.1138916 C-5.22339443 0.00895512 -2.61944543 -0.02120658 0 0 Z " fill="#FCFCFC" transform="translate(223,708)"/>
<path d="M0 0 C4.45806338 3.46633318 6.85210252 7.40644209 7.90625 12.93359375 C8.84751966 22.13417321 7.02941322 28.23292376 1.53125 35.68359375 C-2.29689222 40.37486615 -4.72976647 42.66231695 -10.90625 43.37109375 C-16.87231507 43.12297762 -21.46425425 40.64665338 -25.53125 36.37109375 C-29.23909754 30.58685159 -28.7206507 23.85603666 -27.66796875 17.26953125 C-25.7370948 9.61711057 -21.66998061 4.47669108 -15.28125 -0.06640625 C-10.13948933 -1.67950764 -4.97141536 -2.53208282 0 0 Z " fill="#070707" transform="translate(885.09375,304.06640625)"/>
<path d="M0 0 C5.29112204 2.74731337 9.09375244 6.28125733 11 12 C11.94259819 24.56193353 11.94259819 24.56193353 8 30 C4.03010272 33.58259023 1.68217138 35.13831673 -3.625 35.0625 C-4.85089844 35.04896484 -4.85089844 35.04896484 -6.1015625 35.03515625 C-6.72804688 35.02355469 -7.35453125 35.01195312 -8 35 C-7.855625 36.09699219 -7.71125 37.19398438 -7.5625 38.32421875 C-7.37483474 39.77862452 -7.18734394 41.23305281 -7 42.6875 C-6.90460937 43.40873047 -6.80921875 44.12996094 -6.7109375 44.87304688 C-6.23316265 48.60992871 -5.88080206 52.22291531 -6 56 C-8.475 56.495 -8.475 56.495 -11 57 C-12.47463186 54.2965712 -13.31995607 52.01067442 -13.74609375 48.96484375 C-13.85977295 48.16780029 -13.97345215 47.37075684 -14.09057617 46.54956055 C-14.20506104 45.68758057 -14.3195459 44.82560059 -14.4375 43.9375 C-14.56165283 43.03878174 -14.68580566 42.14006348 -14.8137207 41.21411133 C-16.43870022 29.17092457 -17.71697626 17.08352581 -19 5 C-18.05898438 4.70351563 -17.11796875 4.40703125 -16.1484375 4.1015625 C-13.00610292 3.15553238 -13.00610292 3.15553238 -10.625 1.375 C-7.07106955 -0.48658262 -3.88581123 -0.68707861 0 0 Z " fill="#080808" transform="translate(675,747)"/>
<path d="M0 0 C5.68736844 2.94900586 9.16812692 5.59398561 11.375 11.75 C12.11959258 17.43134339 11.6931543 21.9333244 8.375 26.75 C3.80466979 31.3527439 0.26939748 33.86646964 -6.375 34.0625 C-11.66469899 34.00081255 -14.38085513 32.89066721 -18.625 29.75 C-23.41915059 24.57736384 -23.98371934 20.3875601 -23.90234375 13.54296875 C-23.47409172 9.23028987 -22.28989226 7.18630844 -19.625 3.75 C-13.26313179 -1.18369371 -7.77728487 -2.68182237 0 0 Z " fill="#FBFBFB" transform="translate(430.625,367.25)"/>
<path d="M0 0 C2.81494141 2.47021484 2.81494141 2.47021484 3.55957031 6.04199219 C3.58556551 7.46315394 3.57754923 8.88520998 3.54150391 10.30615234 C3.54250092 11.06312408 3.54349792 11.82009583 3.54452515 12.6000061 C3.53985237 14.19877638 3.52044451 15.79756249 3.48730469 17.39599609 C3.44021738 19.83094381 3.44616778 22.26149157 3.45947266 24.69677734 C3.44831361 26.2540949 3.43409035 27.81139411 3.41650391 29.36865234 C3.41923813 30.45175186 3.41923813 30.45175186 3.42202759 31.55673218 C3.28116826 36.63548122 1.96523014 39.53003835 -1.18505859 43.47021484 C-3.00146484 45.11474609 -3.00146484 45.11474609 -4.74755859 46.28271484 C-5.32634766 46.68103516 -5.90513672 47.07935547 -6.50146484 47.48974609 C-10.51528723 49.82726215 -14.66781223 49.96428866 -19.18505859 49.47021484 C-22.12951197 48.19001772 -23.66349393 47.21530721 -25.49755859 44.59521484 C-26.31697898 42.06246094 -26.46359356 40.11629705 -26.18505859 37.47021484 C-25.52505859 36.81021484 -24.86505859 36.15021484 -24.18505859 35.47021484 C-23.19505859 35.47021484 -22.20505859 35.47021484 -21.18505859 35.47021484 C-20.19505859 37.45021484 -19.20505859 39.43021484 -18.18505859 41.47021484 C-12.91117836 41.97248915 -10.27490164 40.79915686 -6.18505859 37.47021484 C-5.26812898 34.719426 -5.07619776 33.11072572 -5.12255859 30.28271484 C-5.14318359 29.02458984 -5.16380859 27.76646484 -5.18505859 26.47021484 C-5.86568359 26.80021484 -6.54630859 27.13021484 -7.24755859 27.47021484 C-10.87723085 28.70584795 -13.36817231 28.93895526 -17.18505859 28.47021484 C-20.15706831 26.80136823 -22.54904814 24.78766508 -24.06005859 21.65771484 C-24.12193359 20.57490234 -24.12193359 20.57490234 -24.18505859 19.47021484 C-24.28818359 18.21208984 -24.39130859 16.95396484 -24.49755859 15.65771484 C-24.41320131 11.11929313 -23.09246401 7.94388818 -20.18505859 4.47021484 C-14.18193589 -0.80980444 -7.76531514 -3.72968455 0 0 Z " fill="#080808" transform="translate(785.18505859375,300.52978515625)"/>
<path d="M0 0 C5.07504578 2.96593585 8.89231103 6.34099559 10.79296875 12.04296875 C11.18328879 17.89776934 10.75845907 21.80393585 7.79296875 27.04296875 C3.39167778 31.58510103 -0.06396254 33.24050788 -6.33203125 33.48046875 C-12.04589999 33.42990354 -15.42366425 32.65003142 -19.68359375 28.8125 C-23.39605656 24.50033166 -24.87787656 19.77864289 -24.61328125 14.08984375 C-23.49396809 8.45022744 -20.06442261 4.31421661 -15.45703125 1.04296875 C-10.33206672 -1.78924849 -5.43490383 -2.35672821 0 0 Z " fill="#FBFBFB" transform="translate(547.20703125,687.95703125)"/>
<path d="M0 0 C5.31314382 3.11762985 8.25985008 7.06301791 10 13 C10.58876673 19.08392287 9.83141328 24.51478976 7 30 C4.14207868 33.208493 0.918807 35.78370936 -3.42578125 36.2734375 C-11.25299519 36.54881986 -11.25299519 36.54881986 -15.0625 33.75 C-19.4217124 27.56273078 -19.88737887 22.51498977 -19 15 C-17.14846489 9.00730824 -14.27160799 4.07717236 -8.8203125 0.78515625 C-5.55065219 -0.62514788 -3.48734608 -0.68501441 0 0 Z " fill="#080808" transform="translate(870,732)"/>
<path d="M0 0 C3.26272873 2.13832221 6.23730572 4.47461143 8 8 C8.85705353 15.03715471 9.68745862 23.52555437 6.54296875 30 C2.80802109 34.27749796 -0.0321797 35.77042097 -5.75 36.4375 C-10.22242033 36.4044322 -12.45245693 34.55752835 -15.65234375 31.60546875 C-19.84193332 26.61439248 -18.45679561 18.14716377 -18 12 C-16.62779707 6.99063269 -13.14708363 3.63579443 -8.85546875 0.890625 C-5.60118135 -0.67143295 -3.52341022 -0.69209844 0 0 Z " fill="#050505" transform="translate(842,735)"/>
<path d="M0 0 C2.8100346 1.79363911 4.50940468 3.01880935 6 6 C6.02786053 7.4909003 5.98882966 8.98337126 5.9140625 10.47265625 C5.87023437 11.37306641 5.82640625 12.27347656 5.78125 13.20117188 C5.7296875 14.14541016 5.678125 15.08964844 5.625 16.0625 C5.58117187 16.97966797 5.53734375 17.89683594 5.4921875 18.84179688 C5.19864086 24.5944956 4.69066972 30.28148888 4 36 C2.35 35.67 0.7 35.34 -1 35 C-1.33 32.69 -1.66 30.38 -2 28 C-2.680625 28.495 -3.36125 28.99 -4.0625 29.5 C-7.74140375 31.37858915 -9.9091225 31.50238846 -14 31 C-18.02772777 28.87214382 -20.30654663 27.21430177 -22 23 C-22.84644153 17.67529223 -22.30353247 13.17152832 -19.34375 8.63671875 C-14.07361996 2.2175778 -8.58395328 -1.25496393 0 0 Z " fill="#090909" transform="translate(724,290)"/>
<path d="M0 0 C3.12172918 2.4430924 4.70747434 3.98741118 5.8125 7.8125 C5.874375 8.534375 5.93625 9.25625 6 10 C4.25 10.75 4.25 10.75 2 11 C1.38125 10.34 0.7625 9.68 0.125 9 C-0.57625 8.34 -1.2775 7.68 -2 7 C-5.6985004 7.14794002 -7.35805573 7.35805573 -10 10 C-10.30059943 12.36509361 -10.49515012 14.74441881 -10.625 17.125 C-10.69976563 18.40632812 -10.77453125 19.68765625 -10.8515625 21.0078125 C-10.90054688 21.99523437 -10.94953125 22.98265625 -11 24 C-10.34 23.67 -9.68 23.34 -9 23 C-5.5 22.8125 -5.5 22.8125 -2 23 C-1.34 23.66 -0.68 24.32 0 25 C-0.33 26.32 -0.66 27.64 -1 29 C-5.455 30.485 -5.455 30.485 -10 32 C-9.67 39.92 -9.34 47.84 -9 56 C-10.98 56.495 -10.98 56.495 -13 57 C-17.10666349 52.89333651 -16.90945063 45.34579453 -17.125 39.76171875 C-17.125 37.17111087 -17.09173108 34.58885497 -17 32 C-19.64 32 -22.28 32 -25 32 C-25 30.68 -25 29.36 -25 28 C-22 26 -22 26 -18 26 C-18.02320313 25.31035156 -18.04640625 24.62070312 -18.0703125 23.91015625 C-18.35825106 8.9167842 -18.35825106 8.9167842 -13.625 3.0625 C-8.71010105 -0.79920632 -6.30969062 -1.6604449 0 0 Z " fill="#0C0C0C" transform="translate(827,713)"/>
<path d="M0 0 C3.07504636 2.02822207 4.66581629 3.49753176 5.48046875 7.16015625 C5.73957582 11.35488967 5.33216044 13.49137933 3 17.0625 C-1.08637493 19.70161714 -3.19264134 19.46522826 -8 19 C-8.99 18.67 -9.98 18.34 -11 18 C-10.02903542 20.81579728 -9.0441061 21.96750077 -6.625 23.75 C-2.13834901 25.29712103 1.68350559 25.18345128 6.390625 25.0078125 C9 25 9 25 11 26 C10.625 28.4375 10.625 28.4375 10 31 C4.93546694 33.53226653 -3.98335924 32.81292592 -9.40625 31.3515625 C-13.79722622 29.09829839 -16.4276449 25.56820326 -18 21 C-18.7998135 14.70146871 -17.6134621 10.24010099 -14 5 C-9.36151306 0.69283356 -6.39047367 -0.64987868 0 0 Z " fill="#080808" transform="translate(809,303)"/>
<path d="M0 0 C2.93359932 2.23879948 3.84473709 4.01618455 4.41796875 7.6484375 C4.77310977 15.11599737 3.33008572 20.86869404 -1 27 C-4.06362322 29.82175823 -5.33712355 30 -9.5 30 C-13.6101882 28.82566051 -15.26365586 27.2192284 -18 24 C-18.33 23.67 -18.66 23.34 -19 23 C-19.05079322 15.89910756 -19.01793023 9.43609108 -14 4 C-9.3322266 -0.21238087 -6.21572258 -1.77592074 0 0 Z " fill="#FAFAFA" transform="translate(882,310)"/>
<path d="M0 0 C2.125 0.375 2.125 0.375 4 1 C4.29538624 6.02156601 3.80218409 10.0711219 2.5 14.9375 C-0.46013387 27.16044512 -0.54470426 40.47791224 5 52 C6.70434788 54.28858941 8.43666334 56.26366567 10.51171875 58.21875 C12.36578535 60.43779034 12.71970478 62.14954011 13 65 C12 66 12 66 9.69140625 66.3125 C5.24738459 65.79650329 3.60324368 62.80114918 0.86328125 59.50390625 C-8.18802143 47.34062528 -8.32006433 32.59500764 -7 18 C-5.91483897 11.98002101 -4.41614347 4.41614347 0 0 Z " fill="#090909" transform="translate(782,714)"/>
<path d="M0 0 C2.80232755 0.24935965 3.83945923 0.82889733 5.78125 2.8984375 C14.73320155 15.79738587 17.87327888 29.50618242 15.5390625 45.07421875 C13.75657541 52.4243567 10.39587551 59.60412449 5 65 C2.375 64.625 2.375 64.625 0 64 C0.30016887 59.99774842 1.25627748 57.35357986 3.4375 54.0625 C8.72905403 45.91105983 9.49702486 36.4100986 7.58105469 26.92626953 C5.93715628 20.33695135 3.90586971 13.94778124 0.125 8.25 C-2 5 -2 5 -1.6953125 2.859375 C-1 1 -1 1 0 0 Z " fill="#090909" transform="translate(885,707)"/>
<path d="M0 0 C0.99 0.33 1.98 0.66 3 1 C3 1.99 3 2.98 3 4 C3.804375 3.484375 4.60875 2.96875 5.4375 2.4375 C9.79284932 0.68007834 13.57338763 0.20625968 18 2 C21.57645351 5.35800535 22.8271586 6.84450082 23.55859375 11.734375 C23.54668478 13.07347218 23.50539624 14.41257217 23.4375 15.75 C23.41139648 16.79800781 23.41139648 16.79800781 23.38476562 17.8671875 C23.18682578 23.36890022 22.43308346 28.67711859 21 34 C19.34385343 34.38218767 17.67542976 34.71395102 16 35 C15 34 15 34 14.97827148 31.80688477 C15.04896851 30.3884729 15.04896851 30.3884729 15.12109375 28.94140625 C15.16943359 27.91595703 15.21777344 26.89050781 15.26757812 25.83398438 C15.32365234 24.75439453 15.37972656 23.67480469 15.4375 22.5625 C15.54056695 20.43881189 15.64344119 18.31511443 15.74609375 16.19140625 C15.79435303 15.24467041 15.8426123 14.29793457 15.89233398 13.32250977 C15.95907677 11.88277247 16 10.44128348 16 9 C14.14375 8.814375 14.14375 8.814375 12.25 8.625 C11.55390625 8.55539062 10.8578125 8.48578125 10.140625 8.4140625 C7.70917064 8.86571061 7.70917064 8.86571061 5.8359375 11.5078125 C3.74805658 15.47922855 3.00257094 18.85700343 2.375 23.25 C1.24525316 30.75474684 1.24525316 30.75474684 -1 33 C-3.125 32.625 -3.125 32.625 -5 32 C-5.33480349 25.192329 -4.66286772 18.77598884 -3.625 12.0625 C-3.49891357 11.22162842 -3.37282715 10.38075684 -3.24291992 9.5144043 C-3.11377197 8.71687744 -2.98462402 7.91935059 -2.8515625 7.09765625 C-2.73635254 6.38101807 -2.62114258 5.66437988 -2.50244141 4.92602539 C-2 3 -2 3 0 0 Z " fill="#070707" transform="translate(737,294)"/>
<path d="M0 0 C2.328125 0.01171875 2.328125 0.01171875 5 1 C6.51671435 3.30791377 7.63487354 5.32471787 8.75 7.8125 C9.05292969 8.44220703 9.35585938 9.07191406 9.66796875 9.72070312 C14.41599876 19.77597556 14.6174016 31.99638066 11.375 42.625 C8.22841611 50.66749239 2.98192715 56.48415114 -5 60 C-8.5 60.3125 -8.5 60.3125 -11 60 C-11.328125 57.73828125 -11.328125 57.73828125 -11 55 C-8.734375 53.04296875 -8.734375 53.04296875 -5.75 51.1875 C0.64080815 46.85029344 2.57854882 43.26435355 5 36 C5.7323301 26.385552 5.65291239 18.39647424 1.19140625 9.61328125 C-0.1291522 6.71671205 -0.67902087 4.16006211 -1 1 C-0.67 0.67 -0.34 0.34 0 0 Z " fill="#070707" transform="translate(896,295)"/>
<path d="M0 0 C1.65 0.33 3.3 0.66 5 1 C5.66 5.29 6.32 9.58 7 14 C8.588125 13.79375 10.17625 13.5875 11.8125 13.375 C16.625 12.75 16.625 12.75 20 15 C19.75 16.875 19.75 16.875 19 19 C15.79389082 21.37489569 12.8668471 21.06347765 9 21 C9.06058594 21.59949463 9.12117187 22.19898926 9.18359375 22.81665039 C9.45929578 25.56492245 9.72968543 28.31369302 10 31.0625 C10.09539063 32.00544922 10.19078125 32.94839844 10.2890625 33.91992188 C10.78225278 38.97512222 11.11270932 43.92103608 11 49 C9.68 49.66 8.36 50.32 7 51 C2.10975236 45.47189397 2.86523927 38.59538109 2.9375 31.625 C2.94201172 30.79355469 2.94652344 29.96210937 2.95117188 29.10546875 C2.96286836 27.07028103 2.98080065 25.03513077 3 23 C1.95199219 23.14308594 1.95199219 23.14308594 0.8828125 23.2890625 C-0.02726563 23.39992188 -0.93734375 23.51078125 -1.875 23.625 C-3.23238281 23.79902344 -3.23238281 23.79902344 -4.6171875 23.9765625 C-5.79667969 23.98816406 -5.79667969 23.98816406 -7 24 C-7.66 23.34 -8.32 22.68 -9 22 C-8.9375 20 -8.9375 20 -8 18 C-4.70173093 16.21715186 -2.8225249 16 1 16 C0.83628906 15.46890625 0.67257812 14.9378125 0.50390625 14.390625 C-0.11356377 11.46123236 -0.09501925 8.74177064 -0.0625 5.75 C-0.05347656 4.67234375 -0.04445313 3.5946875 -0.03515625 2.484375 C-0.02355469 1.66453125 -0.01195312 0.8446875 0 0 Z " fill="#0C0C0C" transform="translate(750,721)"/>
<path d="M0 0 C7.104734 5.45247028 8.38487109 12.71989578 9.66015625 21.109375 C10.05443139 24.46297963 10.15315847 27.63051376 10 31 C8.125 31.625 8.125 31.625 6 32 C3.7295766 29.7295766 3.5792332 28.82881998 3 25.75390625 C2.7525 24.49803711 2.7525 24.49803711 2.5 23.21679688 C2.2525 21.90291992 2.2525 21.90291992 2 20.5625 C1.6728487 18.83345426 1.3397489 17.1055208 1 15.37890625 C0.855625 14.6113501 0.71125 13.84379395 0.5625 13.05297852 C0.03799715 10.71562545 0.03799715 10.71562545 -2 8 C-3.94074861 8.27617533 -3.94074861 8.27617533 -6 9 C-8.07368191 12.11052286 -8.2367774 12.66439561 -8.125 16.16015625 C-8.10953125 16.95357422 -8.0940625 17.74699219 -8.078125 18.56445312 C-8.03945313 19.80098633 -8.03945313 19.80098633 -8 21.0625 C-7.94905972 22.69895637 -7.90696622 24.33571931 -7.875 25.97265625 C-7.85179687 26.69718994 -7.82859375 27.42172363 -7.8046875 28.16821289 C-8 30 -8 30 -10 32 C-12 31.9375 -12 31.9375 -14 31 C-17.72476692 23.33609109 -17.55768092 13.38161617 -17 5 C-16.67 4.34 -16.34 3.68 -16 3 C-15.278125 3.061875 -14.55625 3.12375 -13.8125 3.1875 C-10.92414695 3.21448573 -10.92414695 3.21448573 -8.5625 1.5 C-5.35067222 -0.38009431 -3.66655035 -0.61109172 0 0 Z " fill="#080808" transform="translate(737,741)"/>
<path d="M0 0 C0.56976562 0.24234375 1.13953125 0.4846875 1.7265625 0.734375 C2.41796875 2.546875 2.41796875 2.546875 2.7265625 4.734375 C1.50390625 6.234375 1.50390625 6.234375 -0.3359375 7.734375 C-9.35336548 16.15665273 -12.16262235 27.83190376 -12.6484375 39.734375 C-12.58762254 44.97797588 -11.36554399 48.90183665 -9.05078125 53.578125 C-8.14696093 56.08520449 -8.38146543 57.26602463 -9.2734375 59.734375 C-11.5234375 60.109375 -11.5234375 60.109375 -14.2734375 59.734375 C-19.37696932 53.46432163 -20.64303801 47.94111754 -20.5859375 40.109375 C-20.58029785 39.30685303 -20.5746582 38.50433105 -20.56884766 37.67749023 C-20.27054646 23.01790641 -14.65339895 11.62977437 -4.421875 1.21875 C-2.2734375 -0.265625 -2.2734375 -0.265625 0 0 Z " fill="#080808" transform="translate(844.2734375,288.265625)"/>
<path d="M0 0 C1.32 0.33 2.64 0.66 4 1 C4.33 2.65 4.66 4.3 5 6 C5.7425 5.34 6.485 4.68 7.25 4 C11.94531961 0.77905611 17.55789549 1.6829842 23 2 C23.625 3.875 23.625 3.875 24 6 C21.57454799 8.42545201 20.57846605 8.29917896 17.25 8.6875 C12.21501336 9.58374219 10.07715449 11.3076008 7.05859375 15.34375 C4.5626506 19.24884187 4.66391942 22.81694708 4.37890625 27.37109375 C4 30 4 30 2 33 C-2.875 32.125 -2.875 32.125 -4 31 C-3.9340719 28.17408178 -3.80691563 25.38149157 -3.625 22.5625 C-3.574646 21.74515381 -3.52429199 20.92780762 -3.47241211 20.08569336 C-3.32263258 17.72320842 -3.16324584 15.36158836 -3 13 C-2.92652344 11.906875 -2.85304688 10.81375 -2.77734375 9.6875 C-2.26219254 3.3932888 -2.26219254 3.3932888 0 0 Z " fill="#0A0A0A" transform="translate(683,287)"/>
<path d="M0 0 C1.32 0.33 2.64 0.66 4 1 C4.47518602 15.49317357 2.8945013 30.99926783 -1 45 C-1.66 45.66 -2.32 46.32 -3 47 C-5.625 46.625 -5.625 46.625 -8 46 C-8.36212414 37.68963169 -7.43257645 29.81398875 -6.02856445 21.62744141 C-5.68481184 19.60921742 -5.36223014 17.588326 -5.04101562 15.56640625 C-4.82509766 14.27863281 -4.60917969 12.99085938 -4.38671875 11.6640625 C-4.19295654 10.50342285 -3.99919434 9.3427832 -3.79956055 8.14697266 C-2.98801533 4.95282979 -1.84085266 2.71373926 0 0 Z " fill="#080808" transform="translate(852,295)"/>
<path d="M0 0 C3.89371878 1.51950001 4.80342513 3.22124657 6.5625 7 C7.16511754 11.63345929 7.59754386 16.06303689 5.34765625 20.2734375 C3.08301842 22.46374367 1.67355552 22.703709 -1.4375 23 C-2.30375 23.103125 -3.17 23.20625 -4.0625 23.3125 C-6.4375 23 -6.4375 23 -8.22265625 21.3359375 C-10.43640944 17.07926737 -10.05865035 12.66537925 -9.4375 8 C-7.31418736 3.8265924 -5.13294363 0 0 0 Z " fill="#F8F8F8" transform="translate(866.4375,738)"/>
<path d="M0 0 C0.33 1.32 0.66 2.64 1 4 C-0.11375 4.61875 -0.11375 4.61875 -1.25 5.25 C-4.54875878 7.34921013 -7.23252144 9.46504288 -9 13 C-9.08400529 14.59447464 -9.10727467 16.19240545 -9.09765625 17.7890625 C-9.09443359 18.73007812 -9.09121094 19.67109375 -9.08789062 20.640625 C-9.07951172 21.62546875 -9.07113281 22.6103125 -9.0625 23.625 C-9.05798828 24.61757813 -9.05347656 25.61015625 -9.04882812 26.6328125 C-9.03702145 29.0886016 -9.020554 31.54427104 -9 34 C-10.32 34.66 -11.64 35.32 -13 36 C-14.92463604 33.11304594 -15.43686309 31.66370702 -16.0703125 28.359375 C-16.33134766 27.00005859 -16.33134766 27.00005859 -16.59765625 25.61328125 C-16.85869141 24.19595703 -16.85869141 24.19595703 -17.125 22.75 C-17.30675781 21.82058594 -17.48851562 20.89117188 -17.67578125 19.93359375 C-18.62896404 14.8666747 -19.21357749 10.15433678 -19 5 C-17.1875 4.375 -17.1875 4.375 -15 4 C-14.01 4.66 -13.02 5.32 -12 6 C-11.773125 5.401875 -11.54625 4.80375 -11.3125 4.1875 C-8.5043691 -0.49271817 -5.09415682 -1.60102072 0 0 Z " fill="#070707" transform="translate(707,744)"/>
<path d="M0 0 C2.71332104 2.19999003 3.85314321 3.89404144 4.31640625 7.3828125 C4.41652758 11.85489866 4.43157534 16.10947945 2 20 C-1.14708679 22.3603151 -4.15920615 22.40859509 -8 22 C-9.66015625 20.84765625 -9.66015625 20.84765625 -11 19 C-11.3984375 16.2578125 -11.3984375 16.2578125 -11.375 13.125 C-11.38273438 12.09632813 -11.39046875 11.06765625 -11.3984375 10.0078125 C-10.94708669 6.6005564 -10.03808036 4.74614584 -8 2 C-4.75846834 -0.1610211 -3.76307099 -0.64247553 0 0 Z " fill="#F7F7F7" transform="translate(841,742)"/>
<path d="M0 0 C3.43935743 2.76643967 4.72680467 4.35370116 5.44921875 8.70703125 C5.61349759 12.93862762 5.58929996 15.98640407 3.4375 19.6875 C0.01873961 21.52837098 -2.18334385 21.62454373 -6 21 C-9.88476015 16.33828782 -10.36438307 10.94248964 -10.27734375 5.0625 C-10 3 -10 3 -8.375 0.9375 C-5.20713763 -0.31297199 -3.37892412 -0.62061872 0 0 Z " fill="#F9F9F9" transform="translate(674,754)"/>
<path d="M0 0 C0.33 2.64 0.66 5.28 1 8 C-8.36085176 10.26439611 -17.44349683 10.20166126 -27 10 C-26.57847656 9.51789062 -26.15695312 9.03578125 -25.72265625 8.5390625 C-25.17480469 7.90742187 -24.62695312 7.27578125 -24.0625 6.625 C-23.51722656 5.99851562 -22.97195313 5.37203125 -22.41015625 4.7265625 C-20.93041376 3.04367666 -20.93041376 3.04367666 -20 1 C-13.50927229 -0.38993361 -6.60476723 -0.12647427 0 0 Z " fill="#090909" transform="translate(615,735)"/>
<path d="M0 0 C0.50224661 6.27808258 0.19082691 9.94635578 -4 15 C-6 17 -6 17 -8.9375 17.3125 C-12 17 -12 17 -13.875 15.875 C-15.65952249 12.90079585 -15.64846 11.43683798 -15 8 C-12.25643981 3.69544867 -9.61014692 0.51646222 -4.6875 -1.0625 C-2 -1 -2 -1 0 0 Z " fill="#FAFAFA" transform="translate(723,297)"/>
<path d="M0 0 C3.875 1.875 3.875 1.875 5 3 C5.15825258 4.99782126 5.25119171 7.00088834 5.31640625 9.00390625 C5.35830078 10.21884766 5.40019531 11.43378906 5.44335938 12.68554688 C5.48267578 13.96494141 5.52199219 15.24433594 5.5625 16.5625 C5.60568359 17.84576172 5.64886719 19.12902344 5.69335938 20.45117188 C5.799848 23.63399853 5.90185962 26.81690674 6 30 C4.125 30.625 4.125 30.625 2 31 C-3.05177738 25.94822262 -2.19950178 16.23333563 -2.25 9.4375 C-2.25918457 8.7347998 -2.26836914 8.03209961 -2.27783203 7.30810547 C-2.24693355 2.24693355 -2.24693355 2.24693355 0 0 Z " fill="#0F0F0F" transform="translate(711,745)"/>
<path d="M0 0 C1.55950551 1.55950551 1.28196698 3.08877131 1.375 5.25 C1.32269282 8.89987906 1.09518221 9.86155314 -1.0625 13 C-4.51114528 15.34801381 -6.84715004 15.92164434 -11 16 C-13 14 -13 14 -13.375 10.75 C-12.93972321 6.3972321 -11.72635704 4.36785281 -9 1 C-6.01787087 -0.49106457 -3.28390342 -0.11941467 0 0 Z " fill="#F0F0F0" transform="translate(781,306)"/>
<path d="M0 0 C2.48273951 0.28258824 3.65222388 0.57923383 5.265625 2.53125 C7.9160283 7.8320566 8.49093045 12.10883464 8 18 C6.68 18.33 5.36 18.66 4 19 C-0.03047988 14.60311286 -0.87190098 9.34848206 -1.1875 3.5625 C-1 1 -1 1 0 0 Z " fill="#050505" transform="translate(873,710)"/>
<path d="M0 0 C0.99 0.33 1.98 0.66 3 1 C3 6.61 3 12.22 3 18 C1.68 18.33 0.36 18.66 -1 19 C-3.29000466 15.56499301 -3.29748064 14.11271981 -3.3125 10.0625 C-3.32925781 9.02222656 -3.34601562 7.98195313 -3.36328125 6.91015625 C-2.96272879 3.70142952 -2.15199859 2.35641006 0 0 Z " fill="#080808" transform="translate(797,719)"/>
<path d="M0 0 C0.5625 1.9375 0.5625 1.9375 1 4 C0 5 0 5 -2.28515625 5.09765625 C-3.65994141 5.08025391 -3.65994141 5.08025391 -5.0625 5.0625 C-5.98160156 5.05347656 -6.90070312 5.04445313 -7.84765625 5.03515625 C-8.55792969 5.02355469 -9.26820313 5.01195312 -10 5 C-7.00915607 -0.3019506 -6.01775424 -1.42525758 0 0 Z " fill="#EFEFEF" transform="translate(809,310)"/>
<path d="M0 0 C0.33 0.66 0.66 1.32 1 2 C1.99 2.33 2.98 2.66 4 3 C3.6803125 3.55300781 3.360625 4.10601562 3.03125 4.67578125 C1.54628508 8.02257719 1.55571547 11.23615832 1.34375 14.85546875 C1.2303125 15.56316406 1.116875 16.27085937 1 17 C0.34 17.33 -0.32 17.66 -1 18 C-0.505 9.09 -0.505 9.09 0 0 Z " fill="#DFDFDF" transform="translate(760,305)"/>
<path d="M0 0 C1.98 0.495 1.98 0.495 4 1 C3.67 2.65 3.34 4.3 3 6 C1.68 5.67 0.36 5.34 -1 5 C-0.67 3.35 -0.34 1.7 0 0 Z " fill="#0A0A0A" transform="translate(709,732)"/>
</svg>
